<svg width="64" height="28" viewBox="0 0 64 28" fill="none" xmlns="http://www.w3.org/2000/svg">
<g clip-path="url(#clip0)">
<path fill-rule="evenodd" clip-rule="evenodd" d="M64 21C64 24.866 60.866 28 57 28L7 28C3.13401 28 3.8147e-06 24.866 3.8147e-06 21V7C3.8147e-06 3.13401 3.13401 0 7 0L57 0C60.866 0 64 3.13401 64 7V21Z" fill="url(#paint0_radial)"/>
<rect x="1.5" y="1.5" width="61" height="25" rx="5.5" fill="url(#paint1_linear)" fill-opacity="0.16"/>
<rect x="1.5" y="1.5" width="61" height="25" rx="5.5" stroke="url(#paint2_linear)" stroke-width="3" style="mix-blend-mode:soft-light"/>
<g filter="url(#filter0_bd)">
<path d="M13.4163 10C14.1723 10 14.8443 10.192 15.4323 10.576C16.0323 10.96 16.4943 11.5 16.8183 12.196C17.1543 12.892 17.3223 13.696 17.3223 14.608C17.3223 15.508 17.1603 16.3 16.8363 16.984C16.5123 17.668 16.0503 18.196 15.4503 18.568C14.8623 18.94 14.1843 19.126 13.4163 19.126C12.7563 19.126 12.1743 18.988 11.6703 18.712C11.1663 18.424 10.7823 18.016 10.5183 17.488V21.502C10.5183 21.754 10.4343 21.952 10.2663 22.096C10.1103 22.252 9.90027 22.33 9.63627 22.33C9.36027 22.33 9.13227 22.252 8.95227 22.096C8.78427 21.94 8.70027 21.73 8.70027 21.466V10.918C8.70027 10.654 8.78427 10.444 8.95227 10.288C9.12027 10.12 9.34227 10.036 9.61827 10.036C9.88227 10.036 10.0983 10.12 10.2663 10.288C10.4343 10.444 10.5183 10.654 10.5183 10.918V11.656C10.7823 11.128 11.1663 10.72 11.6703 10.432C12.1743 10.144 12.7563 10 13.4163 10ZM12.9843 17.686C13.7763 17.686 14.3883 17.422 14.8203 16.894C15.2523 16.354 15.4683 15.592 15.4683 14.608C15.4683 13.612 15.2463 12.838 14.8023 12.286C14.3703 11.734 13.7643 11.458 12.9843 11.458C12.1923 11.458 11.5803 11.728 11.1483 12.268C10.7283 12.808 10.5183 13.576 10.5183 14.572C10.5183 15.568 10.7283 16.336 11.1483 16.876C11.5803 17.416 12.1923 17.686 12.9843 17.686ZM25.113 10.036C25.689 10 25.977 10.246 25.977 10.774C25.977 11.038 25.911 11.236 25.779 11.368C25.647 11.5 25.419 11.578 25.095 11.602L24.555 11.656C23.799 11.728 23.235 11.992 22.863 12.448C22.503 12.904 22.323 13.456 22.323 14.104V18.226C22.323 18.514 22.239 18.73 22.071 18.874C21.903 19.018 21.687 19.09 21.423 19.09C21.159 19.09 20.937 19.018 20.757 18.874C20.589 18.73 20.505 18.514 20.505 18.226V10.9C20.505 10.624 20.589 10.414 20.757 10.27C20.937 10.114 21.159 10.036 21.423 10.036C21.663 10.036 21.861 10.114 22.017 10.27C22.185 10.414 22.269 10.618 22.269 10.882V11.746C22.509 11.218 22.857 10.816 23.313 10.54C23.769 10.264 24.285 10.102 24.861 10.054L25.113 10.036ZM34.9671 16.786C35.1351 16.786 35.2731 16.852 35.3811 16.984C35.4891 17.116 35.5431 17.284 35.5431 17.488C35.5431 17.836 35.3271 18.13 34.8951 18.37C34.4751 18.61 34.0131 18.796 33.5091 18.928C33.0171 19.06 32.5431 19.126 32.0871 19.126C30.6951 19.126 29.5971 18.724 28.7931 17.92C27.9891 17.104 27.5871 15.994 27.5871 14.59C27.5871 13.69 27.7611 12.892 28.1091 12.196C28.4691 11.5 28.9671 10.96 29.6031 10.576C30.2511 10.192 30.9831 10 31.7991 10C32.9751 10 33.9051 10.378 34.5891 11.134C35.2731 11.89 35.6151 12.91 35.6151 14.194C35.6151 14.674 35.3991 14.914 34.9671 14.914H29.4051C29.5251 16.774 30.4191 17.704 32.0871 17.704C32.5311 17.704 32.9151 17.644 33.2391 17.524C33.5631 17.404 33.9051 17.248 34.2651 17.056C34.3011 17.032 34.3971 16.984 34.5531 16.912C34.7211 16.828 34.8591 16.786 34.9671 16.786ZM31.8351 11.332C31.1391 11.332 30.5811 11.554 30.1611 11.998C29.7411 12.442 29.4891 13.066 29.4051 13.87H34.0491C34.0131 13.054 33.8031 12.43 33.4191 11.998C33.0471 11.554 32.5191 11.332 31.8351 11.332ZM42.5504 19.126C41.6984 19.126 40.9484 18.94 40.3004 18.568C39.6644 18.196 39.1664 17.668 38.8064 16.984C38.4584 16.3 38.2844 15.508 38.2844 14.608C38.2844 13.696 38.4644 12.892 38.8244 12.196C39.1964 11.5 39.7124 10.96 40.3724 10.576C41.0324 10.192 41.7884 10 42.6404 10C43.0964 10 43.5524 10.066 44.0084 10.198C44.4764 10.33 44.8904 10.51 45.2504 10.738C45.6344 11.002 45.8264 11.308 45.8264 11.656C45.8264 11.86 45.7724 12.034 45.6644 12.178C45.5564 12.31 45.4184 12.376 45.2504 12.376C45.1424 12.376 45.0344 12.352 44.9264 12.304C44.8184 12.244 44.6804 12.16 44.5124 12.052C44.2124 11.86 43.9304 11.716 43.6664 11.62C43.4144 11.512 43.1084 11.458 42.7484 11.458C41.9324 11.458 41.2964 11.734 40.8404 12.286C40.3964 12.838 40.1744 13.606 40.1744 14.59C40.1744 15.574 40.3964 16.336 40.8404 16.876C41.2844 17.404 41.9144 17.668 42.7304 17.668C43.0904 17.668 43.4084 17.614 43.6844 17.506C43.9604 17.398 44.2424 17.254 44.5304 17.074C44.6624 16.99 44.7944 16.918 44.9264 16.858C45.0584 16.798 45.1784 16.768 45.2864 16.768C45.4544 16.768 45.5924 16.84 45.7004 16.984C45.8084 17.116 45.8624 17.284 45.8624 17.488C45.8624 17.656 45.8144 17.812 45.7184 17.956C45.6344 18.088 45.4844 18.226 45.2684 18.37C44.9084 18.61 44.4884 18.796 44.0084 18.928C43.5284 19.06 43.0424 19.126 42.5504 19.126ZM52.4756 19.126C51.6116 19.126 50.8496 18.94 50.1896 18.568C49.5416 18.196 49.0376 17.668 48.6776 16.984C48.3296 16.288 48.1556 15.484 48.1556 14.572C48.1556 13.648 48.3296 12.844 48.6776 12.16C49.0376 11.464 49.5416 10.93 50.1896 10.558C50.8496 10.186 51.6116 10 52.4756 10C53.3396 10 54.0956 10.186 54.7436 10.558C55.4036 10.93 55.9076 11.464 56.2556 12.16C56.6156 12.844 56.7956 13.648 56.7956 14.572C56.7956 15.484 56.6156 16.288 56.2556 16.984C55.9076 17.668 55.4036 18.196 54.7436 18.568C54.0956 18.94 53.3396 19.126 52.4756 19.126ZM52.4756 17.686C53.2796 17.686 53.8916 17.422 54.3116 16.894C54.7436 16.366 54.9596 15.592 54.9596 14.572C54.9596 13.564 54.7436 12.796 54.3116 12.268C53.8796 11.728 53.2676 11.458 52.4756 11.458C51.6836 11.458 51.0716 11.728 50.6396 12.268C50.2076 12.796 49.9916 13.564 49.9916 14.572C49.9916 15.592 50.2016 16.366 50.6216 16.894C51.0536 17.422 51.6716 17.686 52.4756 17.686Z" fill="white"/>
<path d="M15.4323 10.576L15.1589 10.9947L15.1627 10.9971L15.4323 10.576ZM16.8183 12.196L16.3649 12.407L16.368 12.4134L16.8183 12.196ZM16.8363 16.984L16.3844 16.77L16.8363 16.984ZM15.4503 18.568L15.1868 18.143L15.183 18.1455L15.4503 18.568ZM11.6703 18.712L11.4222 19.1462L11.4301 19.1505L11.6703 18.712ZM10.5183 17.488L10.9655 17.2644L10.0183 17.488H10.5183ZM10.2663 22.096L9.94088 21.7164L9.9263 21.7289L9.91272 21.7424L10.2663 22.096ZM8.95227 22.096L8.61205 22.4624L8.61833 22.4682L8.62481 22.4738L8.95227 22.096ZM8.95227 10.288L9.2925 10.6544L9.29928 10.6481L9.30583 10.6416L8.95227 10.288ZM10.2663 10.288L9.91272 10.6416L9.91927 10.6481L9.92605 10.6544L10.2663 10.288ZM10.5183 11.656H10.0183L10.9655 11.8796L10.5183 11.656ZM11.6703 10.432L11.9183 10.8661L11.6703 10.432ZM14.8203 16.894L15.2073 17.2106L15.2107 17.2063L14.8203 16.894ZM14.8023 12.286L14.4085 12.5942L14.4127 12.5994L14.8023 12.286ZM11.1483 12.268L10.7578 11.9556L10.7536 11.961L11.1483 12.268ZM11.1483 16.876L10.7536 17.183L10.7578 17.1883L11.1483 16.876ZM13.4163 10.5C14.0829 10.5 14.6584 10.6678 15.1589 10.9946L15.7057 10.1574C15.0301 9.71618 14.2616 9.5 13.4163 9.5V10.5ZM15.1627 10.9971C15.6765 11.326 16.0778 11.7901 16.365 12.407L17.2716 11.985C16.9107 11.2099 16.388 10.594 15.7018 10.1549L15.1627 10.9971ZM16.368 12.4134C16.6659 13.0304 16.8223 13.7578 16.8223 14.608H17.8223C17.8223 13.6342 17.6427 12.7536 17.2685 11.9786L16.368 12.4134ZM16.8223 14.608C16.8223 15.4478 16.6713 16.1643 16.3844 16.77L17.2881 17.198C17.6493 16.4357 17.8223 15.5682 17.8223 14.608H16.8223ZM16.3844 16.77C16.0985 17.3735 15.6991 17.8254 15.1868 18.143L15.7137 18.993C16.4015 18.5666 16.9261 17.9625 17.2881 17.198L16.3844 16.77ZM15.183 18.1455C14.6831 18.4617 14.0998 18.626 13.4163 18.626V19.626C14.2688 19.626 15.0414 19.4183 15.7176 18.9905L15.183 18.1455ZM13.4163 18.626C12.8276 18.626 12.3305 18.5035 11.9104 18.2735L11.4301 19.1505C12.0181 19.4725 12.6849 19.626 13.4163 19.626V18.626ZM11.9183 18.2779C11.5016 18.0397 11.1861 17.7057 10.9655 17.2644L10.0711 17.7116C10.3784 18.3263 10.831 18.8083 11.4222 19.1461L11.9183 18.2779ZM10.0183 17.488V21.502H11.0183V17.488H10.0183ZM10.0183 21.502C10.0183 21.6307 9.98196 21.6812 9.94088 21.7164L10.5917 22.4756C10.8866 22.2228 11.0183 21.8773 11.0183 21.502H10.0183ZM9.91272 21.7424C9.86855 21.7866 9.7956 21.83 9.63627 21.83V22.83C10.0049 22.83 10.352 22.7174 10.6198 22.4496L9.91272 21.7424ZM9.63627 21.83C9.46034 21.83 9.35463 21.7831 9.27974 21.7182L8.62481 22.4738C8.90992 22.7209 9.2602 22.83 9.63627 22.83V21.83ZM9.2925 21.7296C9.24217 21.6829 9.20027 21.6141 9.20027 21.466H8.20027C8.20027 21.8459 8.32638 22.1971 8.61205 22.4624L9.2925 21.7296ZM9.20027 21.466V10.918H8.20027V21.466H9.20027ZM9.20027 10.918C9.20027 10.7699 9.24217 10.7011 9.2925 10.6544L8.61205 9.9216C8.32638 10.1869 8.20027 10.5381 8.20027 10.918H9.20027ZM9.30583 10.6416C9.36485 10.5825 9.4517 10.536 9.61827 10.536V9.536C9.23284 9.536 8.8757 9.65747 8.59872 9.93445L9.30583 10.6416ZM9.61827 10.536C9.76581 10.536 9.84932 10.5782 9.91272 10.6416L10.6198 9.93445C10.3472 9.66184 9.99873 9.536 9.61827 9.536V10.536ZM9.92605 10.6544C9.97638 10.7011 10.0183 10.7699 10.0183 10.918H11.0183C11.0183 10.5381 10.8922 10.1869 10.6065 9.9216L9.92605 10.6544ZM10.0183 10.918V11.656H11.0183V10.918H10.0183ZM10.9655 11.8796C11.1861 11.4383 11.5016 11.1043 11.9183 10.8661L11.4222 9.99788C10.831 10.3357 10.3784 10.8177 10.0711 11.4324L10.9655 11.8796ZM11.9183 10.8661C12.3369 10.6269 12.8312 10.5 13.4163 10.5V9.5C12.6814 9.5 12.0116 9.66107 11.4222 9.99788L11.9183 10.8661ZM12.9843 18.186C13.8993 18.186 14.6644 17.8741 15.2073 17.2106L14.4333 16.5774C14.1121 16.9699 13.6533 17.186 12.9843 17.186V18.186ZM15.2107 17.2063C15.7383 16.5469 15.9683 15.6586 15.9683 14.608H14.9683C14.9683 15.5254 14.7663 16.1611 14.4298 16.5817L15.2107 17.2063ZM15.9683 14.608C15.9683 13.5435 15.7314 12.6434 15.1919 11.9726L14.4127 12.5994C14.7612 13.0326 14.9683 13.6805 14.9683 14.608H15.9683ZM15.196 11.9778C14.6577 11.29 13.8982 10.958 12.9843 10.958V11.958C13.6303 11.958 14.0829 12.178 14.4085 12.5942L15.196 11.9778ZM12.9843 10.958C12.0653 10.958 11.2992 11.2789 10.7578 11.9557L11.5387 12.5803C11.8613 12.1771 12.3193 11.958 12.9843 11.958V10.958ZM10.7536 11.961C10.2404 12.6209 10.0183 13.5138 10.0183 14.572H11.0183C11.0183 13.6382 11.2162 12.9951 11.5429 12.575L10.7536 11.961ZM10.0183 14.572C10.0183 15.6302 10.2404 16.5231 10.7536 17.183L11.5429 16.569C11.2162 16.1489 11.0183 15.5058 11.0183 14.572H10.0183ZM10.7578 17.1883C11.2992 17.8651 12.0653 18.186 12.9843 18.186V17.186C12.3193 17.186 11.8613 16.9669 11.5387 16.5637L10.7578 17.1883ZM25.113 10.036L25.0818 9.53695L25.0774 9.53727L25.113 10.036ZM25.779 11.368L25.4255 11.0144L25.779 11.368ZM25.095 11.602L25.0581 11.1032L25.0453 11.1045L25.095 11.602ZM24.555 11.656L24.6024 12.1538L24.6048 12.1535L24.555 11.656ZM22.863 12.448L22.4756 12.1319L22.4706 12.1382L22.863 12.448ZM22.071 18.874L22.3964 19.2536L22.071 18.874ZM20.757 18.874L20.4316 19.2536L20.4381 19.2591L20.4447 19.2644L20.757 18.874ZM20.757 10.27L21.0824 10.6496L21.0845 10.6478L20.757 10.27ZM22.017 10.27L21.6635 10.6236L21.6771 10.6371L21.6916 10.6496L22.017 10.27ZM22.269 11.746H21.769L22.7242 11.9529L22.269 11.746ZM23.313 10.54L23.5719 10.9677L23.313 10.54ZM24.861 10.054L24.8254 9.55524L24.8195 9.55573L24.861 10.054ZM25.1442 10.535C25.369 10.521 25.4321 10.5701 25.4363 10.5737C25.4379 10.575 25.4453 10.5808 25.4544 10.6052C25.4648 10.6331 25.477 10.6857 25.477 10.774H26.477C26.477 10.4238 26.3798 10.0644 26.0858 9.81331C25.802 9.57094 25.4331 9.51502 25.0819 9.53697L25.1442 10.535ZM25.477 10.774C25.477 10.9609 25.4306 11.0093 25.4255 11.0144L26.1326 11.7216C26.3914 11.4627 26.477 11.1151 26.477 10.774H25.477ZM25.4255 11.0144C25.4268 11.0132 25.4093 11.0312 25.3472 11.0524C25.2848 11.0738 25.1913 11.0935 25.0581 11.1034L25.132 12.1006C25.4951 12.0737 25.8724 11.9818 26.1326 11.7216L25.4255 11.0144ZM25.0453 11.1045L24.5053 11.1585L24.6048 12.1535L25.1448 12.0995L25.0453 11.1045ZM24.5076 11.1583C23.659 11.2391 22.9547 11.5446 22.4756 12.1319L23.2505 12.7641C23.5153 12.4394 23.939 12.2169 24.6024 12.1537L24.5076 11.1583ZM22.4706 12.1382C22.0329 12.6926 21.823 13.3573 21.823 14.104H22.823C22.823 13.5547 22.9732 13.1154 23.2555 12.7578L22.4706 12.1382ZM21.823 14.104V18.226H22.823V14.104H21.823ZM21.823 18.226C21.823 18.4151 21.7715 18.4722 21.7456 18.4944L22.3964 19.2536C22.7066 18.9878 22.823 18.6129 22.823 18.226H21.823ZM21.7456 18.4944C21.6851 18.5463 21.5918 18.59 21.423 18.59V19.59C21.7822 19.59 22.121 19.4897 22.3964 19.2536L21.7456 18.4944ZM21.423 18.59C21.2552 18.59 21.1481 18.5465 21.0694 18.4836L20.4447 19.2644C20.726 19.4895 21.0628 19.59 21.423 19.59V18.59ZM21.0824 18.4944C21.0566 18.4722 21.005 18.4151 21.005 18.226H20.005C20.005 18.6129 20.1215 18.9878 20.4316 19.2536L21.0824 18.4944ZM21.005 18.226V10.9H20.005V18.226H21.005ZM21.005 10.9C21.005 10.7308 21.0519 10.6758 21.0824 10.6496L20.4316 9.89037C20.1262 10.1522 20.005 10.5172 20.005 10.9H21.005ZM21.0845 10.6478C21.1636 10.5793 21.2653 10.536 21.423 10.536V9.536C21.0527 9.536 20.7105 9.64867 20.4296 9.89216L21.0845 10.6478ZM21.423 10.536C21.5433 10.536 21.61 10.57 21.6635 10.6236L22.3706 9.91645C22.1121 9.65797 21.7828 9.536 21.423 9.536V10.536ZM21.6916 10.6496C21.7273 10.6802 21.769 10.733 21.769 10.882H22.769C22.769 10.503 22.6428 10.1478 22.3424 9.89037L21.6916 10.6496ZM21.769 10.882V11.746H22.769V10.882H21.769ZM22.7242 11.9529C22.9264 11.5081 23.2097 11.187 23.5719 10.9677L23.0541 10.1122C22.5043 10.445 22.0917 10.9279 21.8139 11.5391L22.7242 11.9529ZM23.5719 10.9677C23.9564 10.735 24.3969 10.5944 24.9026 10.5523L24.8195 9.55573C24.1732 9.60959 23.5816 9.79297 23.0541 10.1122L23.5719 10.9677ZM24.8967 10.5527L25.1487 10.5347L25.0774 9.53727L24.8254 9.55527L24.8967 10.5527ZM34.8951 18.37L34.6522 17.9329L34.647 17.9359L34.8951 18.37ZM33.5091 18.928L33.3824 18.4443L33.3795 18.4451L33.5091 18.928ZM28.7931 17.92L28.4369 18.2709L28.4395 18.2736L28.7931 17.92ZM28.1091 12.196L27.6649 11.9663L27.6618 11.9724L28.1091 12.196ZM29.6031 10.576L29.3481 10.1458L29.3446 10.148L29.6031 10.576ZM29.4051 14.914V14.414H28.8718L28.9061 14.9462L29.4051 14.914ZM33.2391 17.524L33.0654 17.0551L33.2391 17.524ZM34.2651 17.056L34.5003 17.4972L34.522 17.4856L34.5424 17.472L34.2651 17.056ZM34.5531 16.912L34.7626 17.366L34.7697 17.3627L34.7767 17.3592L34.5531 16.912ZM30.1611 11.998L29.7978 11.6544L30.1611 11.998ZM29.4051 13.87L28.9078 13.818L28.8501 14.37H29.4051V13.87ZM34.0491 13.87V14.37H34.5716L34.5486 13.848L34.0491 13.87ZM33.4191 11.998L33.0358 12.3191L33.0405 12.3247L33.0454 12.3302L33.4191 11.998ZM34.9671 17.286C34.9762 17.286 34.9808 17.2869 34.982 17.2871C34.983 17.2874 34.9823 17.2873 34.9808 17.2866C34.9794 17.2859 34.9793 17.2856 34.9809 17.2869C34.9827 17.2883 34.9872 17.2923 34.9941 17.3006L35.768 16.6674C35.5667 16.4214 35.2876 16.286 34.9671 16.286V17.286ZM34.9941 17.3006C35.0153 17.3266 35.0431 17.3759 35.0431 17.488H36.0431C36.0431 17.1921 35.9628 16.9054 35.768 16.6674L34.9941 17.3006ZM35.0431 17.488C35.0431 17.5826 35.0002 17.7396 34.6522 17.9329L35.1379 18.8071C35.654 18.5204 36.0431 18.0894 36.0431 17.488H35.0431ZM34.647 17.9359C34.2679 18.1525 33.8472 18.3226 33.3824 18.4443L33.6357 19.4117C34.1789 19.2694 34.6822 19.0675 35.1431 18.8041L34.647 17.9359ZM33.3795 18.4451C32.9249 18.567 32.4945 18.626 32.0871 18.626V19.626C32.5916 19.626 33.1092 19.553 33.6386 19.4109L33.3795 18.4451ZM32.0871 18.626C30.796 18.626 29.8366 18.2565 29.1466 17.5664L28.4395 18.2736C29.3575 19.1915 30.5941 19.626 32.0871 19.626V18.626ZM29.1492 17.5691C28.4573 16.8668 28.0871 15.8941 28.0871 14.59H27.0871C27.0871 16.0939 27.5208 17.3412 28.4369 18.2709L29.1492 17.5691ZM28.0871 14.59C28.0871 13.7555 28.248 13.0361 28.5563 12.4196L27.6618 11.9724C27.2741 12.7479 27.0871 13.6245 27.0871 14.59H28.0871ZM28.5532 12.4257C28.8732 11.807 29.3089 11.3377 29.8615 11.004L29.3446 10.148C28.6252 10.5823 28.0649 11.193 27.6649 11.9663L28.5532 12.4257ZM29.858 11.0061C30.4224 10.6717 31.065 10.5 31.7991 10.5V9.5C30.9011 9.5 30.0797 9.71234 29.3482 10.1459L29.858 11.0061ZM31.7991 10.5C32.8577 10.5 33.644 10.8347 34.2183 11.4695L34.9598 10.7985C34.1661 9.92128 33.0925 9.5 31.7991 9.5V10.5ZM34.2183 11.4695C34.7991 12.1115 35.1151 13.0006 35.1151 14.194H36.1151C36.1151 12.8194 35.747 11.6685 34.9598 10.7985L34.2183 11.4695ZM35.1151 14.194C35.1151 14.3692 35.0745 14.4072 35.0814 14.3995C35.0973 14.3818 35.0916 14.414 34.9671 14.414V15.414C35.2745 15.414 35.5928 15.3262 35.8247 15.0685C36.0476 14.8208 36.1151 14.4988 36.1151 14.194H35.1151ZM34.9671 14.414H29.4051V15.414H34.9671V14.414ZM28.9061 14.9462C28.9704 15.9427 29.2466 16.772 29.8051 17.353C30.3719 17.9426 31.1589 18.204 32.0871 18.204V17.204C31.3472 17.204 30.8532 17.0004 30.526 16.66C30.1905 16.311 29.9597 15.7453 29.904 14.8818L28.9061 14.9462ZM32.0871 18.204C32.5742 18.204 33.0198 18.1384 33.4127 17.9929L33.0654 17.0551C32.8103 17.1496 32.4879 17.204 32.0871 17.204V18.204ZM33.4127 17.9929C33.7612 17.8638 34.1239 17.6979 34.5003 17.4972L34.0298 16.6148C33.6862 16.7981 33.3649 16.9442 33.0654 17.0551L33.4127 17.9929ZM34.5424 17.472C34.5334 17.4781 34.5313 17.4787 34.5427 17.4724C34.5523 17.4672 34.5669 17.4596 34.5877 17.4492C34.6291 17.4285 34.6869 17.4009 34.7626 17.366L34.3435 16.458C34.2007 16.524 34.0635 16.5895 33.9877 16.64L34.5424 17.472ZM34.7767 17.3592C34.8426 17.3262 34.8926 17.3067 34.9281 17.2958C34.9647 17.2847 34.9758 17.286 34.9671 17.286V16.286C34.7438 16.286 34.5227 16.3682 34.3294 16.4648L34.7767 17.3592ZM31.8351 10.832C31.0226 10.832 30.3257 11.0963 29.7978 11.6544L30.5243 12.3416C30.8364 12.0117 31.2556 11.832 31.8351 11.832V10.832ZM29.7978 11.6544C29.2811 12.2006 28.9995 12.9399 28.9078 13.818L29.9023 13.922C29.9786 13.1921 30.201 12.6834 30.5243 12.3416L29.7978 11.6544ZM29.4051 14.37H34.0491V13.37H29.4051V14.37ZM34.5486 13.848C34.5096 12.9638 34.2792 12.213 33.7928 11.6658L33.0454 12.3302C33.3269 12.647 33.5166 13.1442 33.5495 13.892L34.5486 13.848ZM33.8023 11.6769C33.3178 11.0986 32.6373 10.832 31.8351 10.832V11.832C32.4008 11.832 32.7763 12.0094 33.0358 12.3191L33.8023 11.6769ZM40.3004 18.568L40.0479 18.9996L40.0515 19.0016L40.3004 18.568ZM38.8064 16.984L38.3607 17.2108L38.3639 17.2169L38.8064 16.984ZM38.8244 12.196L38.3834 11.9603L38.3803 11.9663L38.8244 12.196ZM40.3724 10.576L40.121 10.1438L40.3724 10.576ZM44.0084 10.198L43.8694 10.6783L43.8727 10.6792L44.0084 10.198ZM45.2504 10.738L45.5337 10.326L45.5259 10.3206L45.5179 10.3156L45.2504 10.738ZM45.6644 12.178L46.0514 12.4946L46.0581 12.4864L46.0644 12.478L45.6644 12.178ZM44.9264 12.304L44.6836 12.7411L44.703 12.7519L44.7233 12.7609L44.9264 12.304ZM44.5124 12.052L44.7828 11.6314L44.7819 11.6309L44.5124 12.052ZM43.6664 11.62L43.4694 12.0796L43.4823 12.0851L43.4955 12.0899L43.6664 11.62ZM40.8404 12.286L40.4549 11.9675L40.4508 11.9726L40.8404 12.286ZM40.8404 16.876L40.4542 17.1936L40.4577 17.1978L40.8404 16.876ZM44.5304 17.074L44.7954 17.498L44.7988 17.4958L44.5304 17.074ZM44.9264 16.858L45.1333 17.3132L44.9264 16.858ZM45.7004 16.984L45.3004 17.284L45.3067 17.2924L45.3134 17.3006L45.7004 16.984ZM45.7184 17.956L45.3023 17.6786L45.2966 17.6876L45.7184 17.956ZM45.2684 18.37L44.991 17.954L45.2684 18.37ZM42.5504 18.626C41.7733 18.626 41.1115 18.4571 40.5493 18.1344L40.0515 19.0016C40.7853 19.4229 41.6235 19.626 42.5504 19.626V18.626ZM40.5528 18.1364C40.0016 17.814 39.5676 17.3567 39.2489 16.7511L38.3639 17.2169C38.7652 17.9793 39.3272 18.578 40.048 18.9996L40.5528 18.1364ZM39.252 16.7573C38.9455 16.1547 38.7844 15.4428 38.7844 14.608H37.7844C37.7844 15.5732 37.9713 16.4453 38.3608 17.2107L39.252 16.7573ZM38.7844 14.608C38.7844 13.7628 38.9508 13.0399 39.2685 12.4257L38.3803 11.9663C37.978 12.7441 37.7844 13.6292 37.7844 14.608H38.7844ZM39.2654 12.4317C39.5952 11.8146 40.0468 11.3439 40.6238 11.0082L40.121 10.1438C39.378 10.5761 38.7976 11.1854 38.3834 11.9603L39.2654 12.4317ZM40.6238 11.0082C41.1989 10.6736 41.8663 10.5 42.6404 10.5V9.5C41.7105 9.5 40.8659 9.71042 40.121 10.1438L40.6238 11.0082ZM42.6404 10.5C43.0475 10.5 43.4567 10.5588 43.8694 10.6783L44.1474 9.71772C43.6481 9.57318 43.1453 9.5 42.6404 9.5V10.5ZM43.8727 10.6792C44.3006 10.7999 44.669 10.9616 44.9829 11.1604L45.5179 10.3156C45.1118 10.0584 44.6522 9.86009 44.1441 9.71677L43.8727 10.6792ZM44.9671 11.15C45.2661 11.3555 45.3264 11.5258 45.3264 11.656H46.3264C46.3264 11.0902 46.0027 10.6485 45.5337 10.326L44.9671 11.15ZM45.3264 11.656C45.3264 11.7669 45.299 11.8319 45.2644 11.878L46.0644 12.478C46.2458 12.2361 46.3264 11.9531 46.3264 11.656H45.3264ZM45.2774 11.8614C45.2706 11.8697 45.266 11.8737 45.2643 11.8751C45.2627 11.8764 45.2627 11.8761 45.2642 11.8754C45.2657 11.8747 45.2664 11.8746 45.2654 11.8749C45.2642 11.8751 45.2595 11.876 45.2504 11.876V12.876C45.571 12.876 45.8501 12.7406 46.0514 12.4946L45.2774 11.8614ZM45.2504 11.876C45.2187 11.876 45.1796 11.8694 45.1295 11.8471L44.7233 12.7609C44.8892 12.8346 45.0661 12.876 45.2504 12.876V11.876ZM45.1692 11.8669C45.0745 11.8143 44.9465 11.7367 44.7828 11.6314L44.242 12.4726C44.4143 12.5833 44.5623 12.6737 44.6836 12.7411L45.1692 11.8669ZM44.7819 11.6309C44.4588 11.424 44.1436 11.2615 43.8373 11.1501L43.4955 12.0899C43.7172 12.1705 43.966 12.296 44.2429 12.4731L44.7819 11.6309ZM43.8634 11.1604C43.5329 11.0188 43.1559 10.958 42.7484 10.958V11.958C43.0609 11.958 43.2959 12.0052 43.4694 12.0796L43.8634 11.1604ZM42.7484 10.958C41.8066 10.958 41.0199 11.2837 40.4549 11.9676L41.2259 12.6044C41.5729 12.1843 42.0582 11.958 42.7484 11.958V10.958ZM40.4508 11.9726C39.912 12.6424 39.6744 13.5358 39.6744 14.59H40.6744C40.6744 13.6762 40.8808 13.0336 41.23 12.5994L40.4508 11.9726ZM39.6744 14.59C39.6744 15.6433 39.9117 16.5338 40.4542 17.1936L41.2266 16.5584C40.8811 16.1382 40.6744 15.5047 40.6744 14.59H39.6744ZM40.4577 17.1978C41.0144 17.8598 41.7966 18.168 42.7304 18.168V17.168C42.0321 17.168 41.5544 16.9482 41.2231 16.5542L40.4577 17.1978ZM42.7304 18.168C43.1397 18.168 43.5215 18.1066 43.8666 17.9716L43.5022 17.0404C43.2952 17.1214 43.0411 17.168 42.7304 17.168V18.168ZM43.8666 17.9716C44.1752 17.8508 44.4849 17.6921 44.7954 17.498L44.2654 16.65C43.9999 16.8159 43.7456 16.9452 43.5022 17.0404L43.8666 17.9716ZM44.7988 17.4958C44.9127 17.4234 45.0242 17.3628 45.1333 17.3132L44.7195 16.4028C44.5646 16.4732 44.4121 16.5566 44.262 16.6522L44.7988 17.4958ZM45.1333 17.3132C45.2214 17.2731 45.2698 17.268 45.2864 17.268V16.268C45.087 16.268 44.8954 16.3229 44.7195 16.4028L45.1333 17.3132ZM45.2864 17.268C45.2925 17.268 45.294 17.2686 45.2923 17.2682C45.2903 17.2678 45.2874 17.2668 45.2846 17.2653C45.2819 17.2639 45.2816 17.2632 45.2839 17.2652C45.2863 17.2673 45.2921 17.2729 45.3004 17.284L46.1004 16.684C45.9058 16.4246 45.6244 16.268 45.2864 16.268V17.268ZM45.3134 17.3006C45.3347 17.3266 45.3624 17.3759 45.3624 17.488H46.3624C46.3624 17.1921 46.2821 16.9054 46.0874 16.6674L45.3134 17.3006ZM45.3624 17.488C45.3624 17.5542 45.3454 17.6142 45.3024 17.6786L46.1344 18.2334C46.2834 18.0098 46.3624 17.7578 46.3624 17.488H45.3624ZM45.2966 17.6876C45.2667 17.7345 45.1824 17.8264 44.991 17.954L45.5457 18.786C45.7864 18.6256 46.0021 18.4415 46.1402 18.2244L45.2966 17.6876ZM44.991 17.954C44.6816 18.1603 44.312 18.326 43.8758 18.4459L44.141 19.4101C44.6648 19.266 45.1352 19.0597 45.5457 18.786L44.991 17.954ZM43.8758 18.4459C43.4385 18.5662 42.9971 18.626 42.5504 18.626V19.626C43.0877 19.626 43.6183 19.5538 44.141 19.4101L43.8758 18.4459ZM50.1896 18.568L49.9406 19.0016L49.9441 19.0036L50.1896 18.568ZM48.6776 16.984L48.2303 17.2077L48.2351 17.2169L48.6776 16.984ZM48.6776 12.16L48.2335 11.9303L48.2319 11.9333L48.6776 12.16ZM50.1896 10.558L49.9441 10.1224L49.9406 10.1244L50.1896 10.558ZM54.7436 10.558L54.4946 10.9916L54.4981 10.9936L54.7436 10.558ZM56.2556 12.16L55.8083 12.3837L55.8131 12.3929L56.2556 12.16ZM56.2556 16.984L55.8115 16.7543L55.8099 16.7573L56.2556 16.984ZM54.7436 18.568L54.4981 18.1324L54.4946 18.1344L54.7436 18.568ZM54.3116 16.894L53.9246 16.5774L53.9203 16.5827L54.3116 16.894ZM54.3116 12.268L53.9211 12.5804L53.9246 12.5846L54.3116 12.268ZM50.6396 12.268L51.0266 12.5846L51.03 12.5803L50.6396 12.268ZM50.6216 16.894L50.2302 17.2053L50.2346 17.2106L50.6216 16.894ZM52.4756 18.626C51.6853 18.626 51.0102 18.4566 50.4351 18.1324L49.9441 19.0036C50.689 19.4234 51.5378 19.626 52.4756 19.626V18.626ZM50.4385 18.1344C49.8757 17.8113 49.4375 17.3543 49.12 16.7511L48.2351 17.2169C48.6377 17.9817 49.2075 18.5807 49.9406 19.0016L50.4385 18.1344ZM49.1248 16.7604C48.817 16.1448 48.6556 15.4197 48.6556 14.572H47.6556C47.6556 15.5483 47.8421 16.4312 48.2304 17.2076L49.1248 16.7604ZM48.6556 14.572C48.6556 13.7109 48.8175 12.9876 49.1232 12.3867L48.2319 11.9333C47.8416 12.7004 47.6556 13.5851 47.6556 14.572H48.6556ZM49.1217 12.3897C49.4398 11.7746 49.878 11.3134 50.4385 10.9916L49.9406 10.1244C49.2052 10.5466 48.6353 11.1534 48.2335 11.9303L49.1217 12.3897ZM50.4351 10.9936C51.0102 10.6694 51.6853 10.5 52.4756 10.5V9.5C51.5378 9.5 50.689 9.70256 49.9441 10.1224L50.4351 10.9936ZM52.4756 10.5C53.266 10.5 53.9335 10.6695 54.4946 10.9916L54.9925 10.1244C54.2576 9.70249 53.4131 9.5 52.4756 9.5V10.5ZM54.4981 10.9936C55.0687 11.3152 55.5037 11.7742 55.8084 12.3836L56.7028 11.9364C56.3115 11.1538 55.7384 10.5448 54.9891 10.1224L54.4981 10.9936ZM55.8131 12.3929C56.1286 12.9923 56.2956 13.7134 56.2956 14.572H57.2956C57.2956 13.5826 57.1025 12.6957 56.698 11.9271L55.8131 12.3929ZM56.2956 14.572C56.2956 15.4172 56.1292 16.1401 55.8115 16.7543L56.6997 17.2137C57.102 16.4359 57.2956 15.5508 57.2956 14.572H56.2956ZM55.8099 16.7573C55.506 17.3547 55.0711 17.8095 54.4981 18.1324L54.9891 19.0036C55.7361 18.5825 56.3092 17.9813 56.7012 17.2107L55.8099 16.7573ZM54.4946 18.1344C53.9335 18.4565 53.266 18.626 52.4756 18.626V19.626C53.4131 19.626 54.2576 19.4235 54.9925 19.0016L54.4946 18.1344ZM52.4756 18.186C53.3994 18.186 54.1694 17.8759 54.7029 17.2053L53.9203 16.5827C53.6137 16.9681 53.1598 17.186 52.4756 17.186V18.186ZM54.6985 17.2106C55.2322 16.5584 55.4596 15.6524 55.4596 14.572H54.4596C54.4596 15.5316 54.255 16.1736 53.9246 16.5774L54.6985 17.2106ZM55.4596 14.572C55.4596 13.5018 55.2314 12.6027 54.6985 11.9514L53.9246 12.5846C54.2557 12.9893 54.4596 13.6262 54.4596 14.572H55.4596ZM54.702 11.9557C54.1606 11.2789 53.3946 10.958 52.4756 10.958V11.958C53.1406 11.958 53.5985 12.1771 53.9211 12.5803L54.702 11.9557ZM52.4756 10.958C51.5566 10.958 50.7905 11.2789 50.2491 11.9557L51.03 12.5803C51.3526 12.1771 51.8106 11.958 52.4756 11.958V10.958ZM50.2526 11.9514C49.7197 12.6027 49.4916 13.5018 49.4916 14.572H50.4916C50.4916 13.6262 50.6954 12.9893 51.0266 12.5846L50.2526 11.9514ZM49.4916 14.572C49.4916 15.6498 49.7119 16.5535 50.2303 17.2053L51.0129 16.5827C50.6913 16.1785 50.4916 15.5342 50.4916 14.572H49.4916ZM50.2346 17.2106C50.7789 17.8759 51.5514 18.186 52.4756 18.186V17.186C51.7917 17.186 51.3282 16.9681 51.0085 16.5774L50.2346 17.2106Z" fill="white"/>
</g>
</g>
<defs>
<filter id="filter0_bd" x="-15.7997" y="-6.5" width="97.0953" height="61.33" filterUnits="userSpaceOnUse" color-interpolation-filters="sRGB">
<feFlood flood-opacity="0" result="BackgroundImageFix"/>
<feGaussianBlur in="BackgroundImage" stdDeviation="2"/>
<feComposite in2="SourceAlpha" operator="in" result="effect1_backgroundBlur"/>
<feColorMatrix in="SourceAlpha" type="matrix" values="0 0 0 0 0 0 0 0 0 0 0 0 0 0 0 0 0 0 127 0" result="hardAlpha"/>
<feOffset dy="8"/>
<feGaussianBlur stdDeviation="12"/>
<feColorMatrix type="matrix" values="0 0 0 0 0.0980392 0 0 0 0 0.12549 0 0 0 0 0.219608 0 0 0 0.03 0"/>
<feBlend mode="normal" in2="effect1_backgroundBlur" result="effect2_dropShadow"/>
<feBlend mode="normal" in="SourceGraphic" in2="effect2_dropShadow" result="shape"/>
</filter>
<radialGradient id="paint0_radial" cx="0" cy="0" r="1" gradientUnits="userSpaceOnUse" gradientTransform="translate(64 39.5943) rotate(-156.371) scale(69.857 51.3048)">
<stop stop-color="#0099FF"/>
<stop offset="1" stop-color="#00CCFF"/>
</radialGradient>
<linearGradient id="paint1_linear" x1="63.2329" y1="0.608693" x2="14.6323" y2="44.2829" gradientUnits="userSpaceOnUse">
<stop stop-color="white" stop-opacity="0.68"/>
<stop offset="1" stop-color="white" stop-opacity="0.32"/>
</linearGradient>
<linearGradient id="paint2_linear" x1="62.9041" y1="-1.43242e-06" x2="14.9954" y2="44.2392" gradientUnits="userSpaceOnUse">
<stop stop-color="#F2F2F2"/>
<stop offset="1" stop-color="white" stop-opacity="0.35"/>
</linearGradient>
<clipPath id="clip0">
<rect width="64" height="28" fill="white"/>
</clipPath>
</defs>
</svg>
