<svg width="64" height="28" viewBox="0 0 64 28" fill="none" xmlns="http://www.w3.org/2000/svg">
<g clip-path="url(#clip0)">
<path fill-rule="evenodd" clip-rule="evenodd" d="M65 21C65 24.866 61.866 28 58 28L8 28C4.13401 28 1 24.866 1 21V7C1 3.13401 4.13401 0 8 0L58 0C61.866 0 65 3.13401 65 7V21Z" fill="url(#paint0_radial)"/>
<rect x="2.5" y="1.5" width="61" height="25" rx="5.5" fill="url(#paint1_linear)" fill-opacity="0.16"/>
<rect x="2.5" y="1.5" width="61" height="25" rx="5.5" stroke="url(#paint2_linear)" stroke-width="3" style="mix-blend-mode:soft-light"/>
<g filter="url(#filter0_bd)">
<path d="M14.4163 9C15.1723 9 15.8443 9.192 16.4323 9.576C17.0323 9.96 17.4943 10.5 17.8183 11.196C18.1543 11.892 18.3223 12.696 18.3223 13.608C18.3223 14.508 18.1603 15.3 17.8363 15.984C17.5123 16.668 17.0503 17.196 16.4503 17.568C15.8623 17.94 15.1843 18.126 14.4163 18.126C13.7563 18.126 13.1743 17.988 12.6703 17.712C12.1663 17.424 11.7823 17.016 11.5183 16.488V20.502C11.5183 20.754 11.4343 20.952 11.2663 21.096C11.1103 21.252 10.9003 21.33 10.6363 21.33C10.3603 21.33 10.1323 21.252 9.95227 21.096C9.78427 20.94 9.70027 20.73 9.70027 20.466V9.918C9.70027 9.654 9.78427 9.444 9.95227 9.288C10.1203 9.12 10.3423 9.036 10.6183 9.036C10.8823 9.036 11.0983 9.12 11.2663 9.288C11.4343 9.444 11.5183 9.654 11.5183 9.918V10.656C11.7823 10.128 12.1663 9.72 12.6703 9.432C13.1743 9.144 13.7563 9 14.4163 9ZM13.9843 16.686C14.7763 16.686 15.3883 16.422 15.8203 15.894C16.2523 15.354 16.4683 14.592 16.4683 13.608C16.4683 12.612 16.2463 11.838 15.8023 11.286C15.3703 10.734 14.7643 10.458 13.9843 10.458C13.1923 10.458 12.5803 10.728 12.1483 11.268C11.7283 11.808 11.5183 12.576 11.5183 13.572C11.5183 14.568 11.7283 15.336 12.1483 15.876C12.5803 16.416 13.1923 16.686 13.9843 16.686ZM26.113 9.036C26.689 9 26.977 9.246 26.977 9.774C26.977 10.038 26.911 10.236 26.779 10.368C26.647 10.5 26.419 10.578 26.095 10.602L25.555 10.656C24.799 10.728 24.235 10.992 23.863 11.448C23.503 11.904 23.323 12.456 23.323 13.104V17.226C23.323 17.514 23.239 17.73 23.071 17.874C22.903 18.018 22.687 18.09 22.423 18.09C22.159 18.09 21.937 18.018 21.757 17.874C21.589 17.73 21.505 17.514 21.505 17.226V9.9C21.505 9.624 21.589 9.414 21.757 9.27C21.937 9.114 22.159 9.036 22.423 9.036C22.663 9.036 22.861 9.114 23.017 9.27C23.185 9.414 23.269 9.618 23.269 9.882V10.746C23.509 10.218 23.857 9.816 24.313 9.54C24.769 9.264 25.285 9.102 25.861 9.054L26.113 9.036ZM35.9671 15.786C36.1351 15.786 36.2731 15.852 36.3811 15.984C36.4891 16.116 36.5431 16.284 36.5431 16.488C36.5431 16.836 36.3271 17.13 35.8951 17.37C35.4751 17.61 35.0131 17.796 34.5091 17.928C34.0171 18.06 33.5431 18.126 33.0871 18.126C31.6951 18.126 30.5971 17.724 29.7931 16.92C28.9891 16.104 28.5871 14.994 28.5871 13.59C28.5871 12.69 28.7611 11.892 29.1091 11.196C29.4691 10.5 29.9671 9.96 30.6031 9.576C31.2511 9.192 31.9831 9 32.7991 9C33.9751 9 34.9051 9.378 35.5891 10.134C36.2731 10.89 36.6151 11.91 36.6151 13.194C36.6151 13.674 36.3991 13.914 35.9671 13.914H30.4051C30.5251 15.774 31.4191 16.704 33.0871 16.704C33.5311 16.704 33.9151 16.644 34.2391 16.524C34.5631 16.404 34.9051 16.248 35.2651 16.056C35.3011 16.032 35.3971 15.984 35.5531 15.912C35.7211 15.828 35.8591 15.786 35.9671 15.786ZM32.8351 10.332C32.1391 10.332 31.5811 10.554 31.1611 10.998C30.7411 11.442 30.4891 12.066 30.4051 12.87H35.0491C35.0131 12.054 34.8031 11.43 34.4191 10.998C34.0471 10.554 33.5191 10.332 32.8351 10.332ZM43.5504 18.126C42.6984 18.126 41.9484 17.94 41.3004 17.568C40.6644 17.196 40.1664 16.668 39.8064 15.984C39.4584 15.3 39.2844 14.508 39.2844 13.608C39.2844 12.696 39.4644 11.892 39.8244 11.196C40.1964 10.5 40.7124 9.96 41.3724 9.576C42.0324 9.192 42.7884 9 43.6404 9C44.0964 9 44.5524 9.066 45.0084 9.198C45.4764 9.33 45.8904 9.51 46.2504 9.738C46.6344 10.002 46.8264 10.308 46.8264 10.656C46.8264 10.86 46.7724 11.034 46.6644 11.178C46.5564 11.31 46.4184 11.376 46.2504 11.376C46.1424 11.376 46.0344 11.352 45.9264 11.304C45.8184 11.244 45.6804 11.16 45.5124 11.052C45.2124 10.86 44.9304 10.716 44.6664 10.62C44.4144 10.512 44.1084 10.458 43.7484 10.458C42.9324 10.458 42.2964 10.734 41.8404 11.286C41.3964 11.838 41.1744 12.606 41.1744 13.59C41.1744 14.574 41.3964 15.336 41.8404 15.876C42.2844 16.404 42.9144 16.668 43.7304 16.668C44.0904 16.668 44.4084 16.614 44.6844 16.506C44.9604 16.398 45.2424 16.254 45.5304 16.074C45.6624 15.99 45.7944 15.918 45.9264 15.858C46.0584 15.798 46.1784 15.768 46.2864 15.768C46.4544 15.768 46.5924 15.84 46.7004 15.984C46.8084 16.116 46.8624 16.284 46.8624 16.488C46.8624 16.656 46.8144 16.812 46.7184 16.956C46.6344 17.088 46.4844 17.226 46.2684 17.37C45.9084 17.61 45.4884 17.796 45.0084 17.928C44.5284 18.06 44.0424 18.126 43.5504 18.126ZM53.4756 18.126C52.6116 18.126 51.8496 17.94 51.1896 17.568C50.5416 17.196 50.0376 16.668 49.6776 15.984C49.3296 15.288 49.1556 14.484 49.1556 13.572C49.1556 12.648 49.3296 11.844 49.6776 11.16C50.0376 10.464 50.5416 9.93 51.1896 9.558C51.8496 9.186 52.6116 9 53.4756 9C54.3396 9 55.0956 9.186 55.7436 9.558C56.4036 9.93 56.9076 10.464 57.2556 11.16C57.6156 11.844 57.7956 12.648 57.7956 13.572C57.7956 14.484 57.6156 15.288 57.2556 15.984C56.9076 16.668 56.4036 17.196 55.7436 17.568C55.0956 17.94 54.3396 18.126 53.4756 18.126ZM53.4756 16.686C54.2796 16.686 54.8916 16.422 55.3116 15.894C55.7436 15.366 55.9596 14.592 55.9596 13.572C55.9596 12.564 55.7436 11.796 55.3116 11.268C54.8796 10.728 54.2676 10.458 53.4756 10.458C52.6836 10.458 52.0716 10.728 51.6396 11.268C51.2076 11.796 50.9916 12.564 50.9916 13.572C50.9916 14.592 51.2016 15.366 51.6216 15.894C52.0536 16.422 52.6716 16.686 53.4756 16.686Z" fill="white"/>
<path d="M16.4323 9.576L16.1589 9.99465L16.1627 9.99714L16.4323 9.576ZM17.8183 11.196L17.3649 11.407L17.368 11.4134L17.8183 11.196ZM17.8363 15.984L17.3844 15.77L17.8363 15.984ZM16.4503 17.568L16.1868 17.143L16.183 17.1455L16.4503 17.568ZM12.6703 17.712L12.4222 18.1462L12.4301 18.1505L12.6703 17.712ZM11.5183 16.488L11.9655 16.2644L11.0183 16.488H11.5183ZM11.2663 21.096L10.9409 20.7164L10.9263 20.7289L10.9127 20.7424L11.2663 21.096ZM9.95227 21.096L9.61205 21.4624L9.61833 21.4682L9.62481 21.4738L9.95227 21.096ZM9.95227 9.288L10.2925 9.6544L10.2993 9.6481L10.3058 9.64155L9.95227 9.288ZM11.2663 9.288L10.9127 9.64155L10.9193 9.6481L10.926 9.6544L11.2663 9.288ZM11.5183 10.656H11.0183L11.9655 10.8796L11.5183 10.656ZM12.6703 9.432L12.9183 9.86612L12.6703 9.432ZM15.8203 15.894L16.2073 16.2106L16.2107 16.2063L15.8203 15.894ZM15.8023 11.286L15.4085 11.5942L15.4127 11.5994L15.8023 11.286ZM12.1483 11.268L11.7578 10.9556L11.7536 10.961L12.1483 11.268ZM12.1483 15.876L11.7536 16.183L11.7578 16.1883L12.1483 15.876ZM14.4163 9.5C15.0829 9.5 15.6584 9.66782 16.1589 9.99463L16.7057 9.15736C16.0301 8.71618 15.2616 8.5 14.4163 8.5V9.5ZM16.1627 9.99714C16.6765 10.326 17.0778 10.7901 17.365 11.407L18.2716 10.985C17.9107 10.2099 17.388 9.59403 16.7018 9.15486L16.1627 9.99714ZM17.368 11.4134C17.6659 12.0304 17.8223 12.7578 17.8223 13.608H18.8223C18.8223 12.6342 18.6427 11.7536 18.2685 10.9786L17.368 11.4134ZM17.8223 13.608C17.8223 14.4478 17.6713 15.1643 17.3844 15.77L18.2881 16.198C18.6493 15.4357 18.8223 14.5682 18.8223 13.608H17.8223ZM17.3844 15.77C17.0985 16.3735 16.6991 16.8254 16.1868 17.143L16.7137 17.993C17.4015 17.5666 17.9261 16.9625 18.2881 16.198L17.3844 15.77ZM16.183 17.1455C15.6831 17.4617 15.0998 17.626 14.4163 17.626V18.626C15.2688 18.626 16.0414 18.4183 16.7176 17.9905L16.183 17.1455ZM14.4163 17.626C13.8276 17.626 13.3305 17.5035 12.9104 17.2735L12.4301 18.1505C13.0181 18.4725 13.6849 18.626 14.4163 18.626V17.626ZM12.9183 17.2779C12.5016 17.0397 12.1861 16.7057 11.9655 16.2644L11.0711 16.7116C11.3784 17.3263 11.831 17.8083 12.4222 18.1461L12.9183 17.2779ZM11.0183 16.488V20.502H12.0183V16.488H11.0183ZM11.0183 20.502C11.0183 20.6307 10.982 20.6812 10.9409 20.7164L11.5917 21.4756C11.8866 21.2228 12.0183 20.8773 12.0183 20.502H11.0183ZM10.9127 20.7424C10.8685 20.7866 10.7956 20.83 10.6363 20.83V21.83C11.0049 21.83 11.352 21.7174 11.6198 21.4496L10.9127 20.7424ZM10.6363 20.83C10.4603 20.83 10.3546 20.7831 10.2797 20.7182L9.62481 21.4738C9.90992 21.7209 10.2602 21.83 10.6363 21.83V20.83ZM10.2925 20.7296C10.2422 20.6829 10.2003 20.6141 10.2003 20.466H9.20027C9.20027 20.8459 9.32638 21.1971 9.61205 21.4624L10.2925 20.7296ZM10.2003 20.466V9.918H9.20027V20.466H10.2003ZM10.2003 9.918C10.2003 9.76992 10.2422 9.70113 10.2925 9.6544L9.61205 8.9216C9.32638 9.18687 9.20027 9.53808 9.20027 9.918H10.2003ZM10.3058 9.64155C10.3648 9.58253 10.4517 9.536 10.6183 9.536V8.536C10.2328 8.536 9.8757 8.65747 9.59872 8.93445L10.3058 9.64155ZM10.6183 9.536C10.7658 9.536 10.8493 9.57815 10.9127 9.64155L11.6198 8.93445C11.3472 8.66184 10.9987 8.536 10.6183 8.536V9.536ZM10.926 9.6544C10.9764 9.70113 11.0183 9.76992 11.0183 9.918H12.0183C12.0183 9.53808 11.8922 9.18687 11.6065 8.9216L10.926 9.6544ZM11.0183 9.918V10.656H12.0183V9.918H11.0183ZM11.9655 10.8796C12.1861 10.4383 12.5016 10.1043 12.9183 9.86612L12.4222 8.99788C11.831 9.33573 11.3784 9.81769 11.0711 10.4324L11.9655 10.8796ZM12.9183 9.86612C13.3369 9.62693 13.8312 9.5 14.4163 9.5V8.5C13.6814 8.5 13.0116 8.66107 12.4222 8.99788L12.9183 9.86612ZM13.9843 17.186C14.8993 17.186 15.6644 16.8741 16.2073 16.2106L15.4333 15.5774C15.1121 15.9699 14.6533 16.186 13.9843 16.186V17.186ZM16.2107 16.2063C16.7383 15.5469 16.9683 14.6586 16.9683 13.608H15.9683C15.9683 14.5254 15.7663 15.1611 15.4298 15.5817L16.2107 16.2063ZM16.9683 13.608C16.9683 12.5435 16.7314 11.6434 16.1919 10.9726L15.4127 11.5994C15.7612 12.0326 15.9683 12.6805 15.9683 13.608H16.9683ZM16.196 10.9778C15.6577 10.29 14.8982 9.958 13.9843 9.958V10.958C14.6303 10.958 15.0829 11.178 15.4085 11.5942L16.196 10.9778ZM13.9843 9.958C13.0653 9.958 12.2992 10.2789 11.7578 10.9557L12.5387 11.5803C12.8613 11.1771 13.3193 10.958 13.9843 10.958V9.958ZM11.7536 10.961C11.2404 11.6209 11.0183 12.5138 11.0183 13.572H12.0183C12.0183 12.6382 12.2162 11.9951 12.5429 11.575L11.7536 10.961ZM11.0183 13.572C11.0183 14.6302 11.2404 15.5231 11.7536 16.183L12.5429 15.569C12.2162 15.1489 12.0183 14.5058 12.0183 13.572H11.0183ZM11.7578 16.1883C12.2992 16.8651 13.0653 17.186 13.9843 17.186V16.186C13.3193 16.186 12.8613 15.9669 12.5387 15.5637L11.7578 16.1883ZM26.113 9.036L26.0818 8.53695L26.0774 8.53727L26.113 9.036ZM26.779 10.368L26.4255 10.0144L26.779 10.368ZM26.095 10.602L26.0581 10.1032L26.0453 10.1045L26.095 10.602ZM25.555 10.656L25.6024 11.1538L25.6048 11.1535L25.555 10.656ZM23.863 11.448L23.4756 11.1319L23.4706 11.1382L23.863 11.448ZM23.071 17.874L23.3964 18.2536L23.071 17.874ZM21.757 17.874L21.4316 18.2536L21.4381 18.2591L21.4447 18.2644L21.757 17.874ZM21.757 9.27L22.0824 9.64963L22.0845 9.64784L21.757 9.27ZM23.017 9.27L22.6635 9.62355L22.6771 9.63713L22.6916 9.64963L23.017 9.27ZM23.269 10.746H22.769L23.7242 10.9529L23.269 10.746ZM24.313 9.54L24.5719 9.96775L24.313 9.54ZM25.861 9.054L25.8254 8.55524L25.8195 8.55573L25.861 9.054ZM26.1442 9.53503C26.369 9.52098 26.4321 9.57006 26.4363 9.57369C26.4379 9.57504 26.4453 9.58084 26.4544 9.60524C26.4648 9.63308 26.477 9.68571 26.477 9.774H27.477C27.477 9.42384 27.3798 9.06441 27.0858 8.81331C26.802 8.57094 26.4331 8.51502 26.0819 8.53697L26.1442 9.53503ZM26.477 9.774C26.477 9.96093 26.4306 10.0093 26.4255 10.0144L27.1326 10.7216C27.3914 10.4627 27.477 10.1151 27.477 9.774H26.477ZM26.4255 10.0144C26.4268 10.0132 26.4093 10.0312 26.3472 10.0524C26.2848 10.0738 26.1913 10.0935 26.0581 10.1034L26.132 11.1006C26.4951 11.0737 26.8724 10.9818 27.1326 10.7216L26.4255 10.0144ZM26.0453 10.1045L25.5053 10.1585L25.6048 11.1535L26.1448 11.0995L26.0453 10.1045ZM25.5076 10.1583C24.659 10.2391 23.9547 10.5446 23.4756 11.1319L24.2505 11.7641C24.5153 11.4394 24.939 11.2169 25.6024 11.1537L25.5076 10.1583ZM23.4706 11.1382C23.0329 11.6926 22.823 12.3573 22.823 13.104H23.823C23.823 12.5547 23.9732 12.1154 24.2555 11.7578L23.4706 11.1382ZM22.823 13.104V17.226H23.823V13.104H22.823ZM22.823 17.226C22.823 17.4151 22.7715 17.4722 22.7456 17.4944L23.3964 18.2536C23.7066 17.9878 23.823 17.6129 23.823 17.226H22.823ZM22.7456 17.4944C22.6851 17.5463 22.5918 17.59 22.423 17.59V18.59C22.7822 18.59 23.121 18.4897 23.3964 18.2536L22.7456 17.4944ZM22.423 17.59C22.2552 17.59 22.1481 17.5465 22.0694 17.4836L21.4447 18.2644C21.726 18.4895 22.0628 18.59 22.423 18.59V17.59ZM22.0824 17.4944C22.0566 17.4722 22.005 17.4151 22.005 17.226H21.005C21.005 17.6129 21.1215 17.9878 21.4316 18.2536L22.0824 17.4944ZM22.005 17.226V9.9H21.005V17.226H22.005ZM22.005 9.9C22.005 9.73082 22.0519 9.67582 22.0824 9.64963L21.4316 8.89037C21.1262 9.15218 21.005 9.51718 21.005 9.9H22.005ZM22.0845 9.64784C22.1636 9.57933 22.2653 9.536 22.423 9.536V8.536C22.0527 8.536 21.7105 8.64867 21.4296 8.89216L22.0845 9.64784ZM22.423 9.536C22.5433 9.536 22.61 9.57003 22.6635 9.62355L23.3706 8.91645C23.1121 8.65797 22.7828 8.536 22.423 8.536V9.536ZM22.6916 9.64963C22.7273 9.68016 22.769 9.73296 22.769 9.882H23.769C23.769 9.50304 23.6428 9.14784 23.3424 8.89037L22.6916 9.64963ZM22.769 9.882V10.746H23.769V9.882H22.769ZM23.7242 10.9529C23.9264 10.5081 24.2097 10.187 24.5719 9.96775L24.0541 9.11225C23.5043 9.44503 23.0917 9.92785 22.8139 10.5391L23.7242 10.9529ZM24.5719 9.96775C24.9564 9.73502 25.3969 9.59441 25.9026 9.55227L25.8195 8.55573C25.1732 8.60959 24.5816 8.79297 24.0541 9.11225L24.5719 9.96775ZM25.8967 9.55273L26.1487 9.53473L26.0774 8.53727L25.8254 8.55527L25.8967 9.55273ZM35.8951 17.37L35.6522 16.9329L35.647 16.9359L35.8951 17.37ZM34.5091 17.928L34.3824 17.4443L34.3795 17.4451L34.5091 17.928ZM29.7931 16.92L29.4369 17.2709L29.4395 17.2736L29.7931 16.92ZM29.1091 11.196L28.6649 10.9663L28.6618 10.9724L29.1091 11.196ZM30.6031 9.576L30.3481 9.14584L30.3446 9.14797L30.6031 9.576ZM30.4051 13.914V13.414H29.8718L29.9061 13.9462L30.4051 13.914ZM34.2391 16.524L34.0654 16.0551L34.2391 16.524ZM35.2651 16.056L35.5003 16.4972L35.522 16.4856L35.5424 16.472L35.2651 16.056ZM35.5531 15.912L35.7626 16.366L35.7697 16.3627L35.7767 16.3592L35.5531 15.912ZM31.1611 10.998L30.7978 10.6544L31.1611 10.998ZM30.4051 12.87L29.9078 12.818L29.8501 13.37H30.4051V12.87ZM35.0491 12.87V13.37H35.5716L35.5486 12.848L35.0491 12.87ZM34.4191 10.998L34.0358 11.3191L34.0405 11.3247L34.0454 11.3302L34.4191 10.998ZM35.9671 16.286C35.9762 16.286 35.9808 16.2869 35.982 16.2871C35.983 16.2874 35.9823 16.2873 35.9808 16.2866C35.9794 16.2859 35.9793 16.2856 35.9809 16.2869C35.9827 16.2883 35.9872 16.2923 35.9941 16.3006L36.768 15.6674C36.5667 15.4214 36.2876 15.286 35.9671 15.286V16.286ZM35.9941 16.3006C36.0153 16.3266 36.0431 16.3759 36.0431 16.488H37.0431C37.0431 16.1921 36.9628 15.9054 36.768 15.6674L35.9941 16.3006ZM36.0431 16.488C36.0431 16.5826 36.0002 16.7396 35.6522 16.9329L36.1379 17.8071C36.654 17.5204 37.0431 17.0894 37.0431 16.488H36.0431ZM35.647 16.9359C35.2679 17.1525 34.8472 17.3226 34.3824 17.4443L34.6357 18.4117C35.1789 18.2694 35.6822 18.0675 36.1431 17.8041L35.647 16.9359ZM34.3795 17.4451C33.9249 17.567 33.4945 17.626 33.0871 17.626V18.626C33.5916 18.626 34.1092 18.553 34.6386 18.4109L34.3795 17.4451ZM33.0871 17.626C31.796 17.626 30.8366 17.2565 30.1466 16.5664L29.4395 17.2736C30.3575 18.1915 31.5941 18.626 33.0871 18.626V17.626ZM30.1492 16.5691C29.4573 15.8668 29.0871 14.8941 29.0871 13.59H28.0871C28.0871 15.0939 28.5208 16.3412 29.4369 17.2709L30.1492 16.5691ZM29.0871 13.59C29.0871 12.7555 29.248 12.0361 29.5563 11.4196L28.6618 10.9724C28.2741 11.7479 28.0871 12.6245 28.0871 13.59H29.0871ZM29.5532 11.4257C29.8732 10.807 30.3089 10.3377 30.8615 10.004L30.3446 9.14797C29.6252 9.58233 29.0649 10.193 28.6649 10.9663L29.5532 11.4257ZM30.858 10.0061C31.4224 9.67166 32.065 9.5 32.7991 9.5V8.5C31.9011 8.5 31.0797 8.71234 30.3482 9.14585L30.858 10.0061ZM32.7991 9.5C33.8577 9.5 34.644 9.83472 35.2183 10.4695L35.9598 9.79854C35.1661 8.92128 34.0925 8.5 32.7991 8.5V9.5ZM35.2183 10.4695C35.7991 11.1115 36.1151 12.0006 36.1151 13.194H37.1151C37.1151 11.8194 36.747 10.6685 35.9598 9.79854L35.2183 10.4695ZM36.1151 13.194C36.1151 13.3692 36.0745 13.4072 36.0814 13.3995C36.0973 13.3818 36.0916 13.414 35.9671 13.414V14.414C36.2745 14.414 36.5928 14.3262 36.8247 14.0685C37.0476 13.8208 37.1151 13.4988 37.1151 13.194H36.1151ZM35.9671 13.414H30.4051V14.414H35.9671V13.414ZM29.9061 13.9462C29.9704 14.9427 30.2466 15.772 30.8051 16.353C31.3719 16.9426 32.1589 17.204 33.0871 17.204V16.204C32.3472 16.204 31.8532 16.0004 31.526 15.66C31.1905 15.311 30.9597 14.7453 30.904 13.8818L29.9061 13.9462ZM33.0871 17.204C33.5742 17.204 34.0198 17.1384 34.4127 16.9929L34.0654 16.0551C33.8103 16.1496 33.4879 16.204 33.0871 16.204V17.204ZM34.4127 16.9929C34.7612 16.8638 35.1239 16.6979 35.5003 16.4972L35.0298 15.6148C34.6862 15.7981 34.3649 15.9442 34.0654 16.0551L34.4127 16.9929ZM35.5424 16.472C35.5334 16.4781 35.5313 16.4787 35.5427 16.4724C35.5523 16.4672 35.5669 16.4596 35.5877 16.4492C35.6291 16.4285 35.6869 16.4009 35.7626 16.366L35.3435 15.458C35.2007 15.524 35.0635 15.5895 34.9877 15.64L35.5424 16.472ZM35.7767 16.3592C35.8426 16.3262 35.8926 16.3067 35.9281 16.2958C35.9647 16.2847 35.9758 16.286 35.9671 16.286V15.286C35.7438 15.286 35.5227 15.3682 35.3294 15.4648L35.7767 16.3592ZM32.8351 9.832C32.0226 9.832 31.3257 10.0963 30.7978 10.6544L31.5243 11.3416C31.8364 11.0117 32.2556 10.832 32.8351 10.832V9.832ZM30.7978 10.6544C30.2811 11.2006 29.9995 11.9399 29.9078 12.818L30.9023 12.922C30.9786 12.1921 31.201 11.6834 31.5243 11.3416L30.7978 10.6544ZM30.4051 13.37H35.0491V12.37H30.4051V13.37ZM35.5486 12.848C35.5096 11.9638 35.2792 11.213 34.7928 10.6658L34.0454 11.3302C34.3269 11.647 34.5166 12.1442 34.5495 12.892L35.5486 12.848ZM34.8023 10.6769C34.3178 10.0986 33.6373 9.832 32.8351 9.832V10.832C33.4008 10.832 33.7763 11.0094 34.0358 11.3191L34.8023 10.6769ZM41.3004 17.568L41.0479 17.9996L41.0515 18.0016L41.3004 17.568ZM39.8064 15.984L39.3607 16.2108L39.3639 16.2169L39.8064 15.984ZM39.8244 11.196L39.3834 10.9603L39.3803 10.9663L39.8244 11.196ZM41.3724 9.576L41.121 9.14383L41.3724 9.576ZM45.0084 9.198L44.8694 9.67829L44.8727 9.67922L45.0084 9.198ZM46.2504 9.738L46.5337 9.32598L46.5259 9.32064L46.5179 9.31559L46.2504 9.738ZM46.6644 11.178L47.0514 11.4946L47.0581 11.4864L47.0644 11.478L46.6644 11.178ZM45.9264 11.304L45.6836 11.7411L45.703 11.7519L45.7233 11.7609L45.9264 11.304ZM45.5124 11.052L45.7828 10.6314L45.7819 10.6309L45.5124 11.052ZM44.6664 10.62L44.4694 11.0796L44.4823 11.0851L44.4955 11.0899L44.6664 10.62ZM41.8404 11.286L41.4549 10.9675L41.4508 10.9726L41.8404 11.286ZM41.8404 15.876L41.4542 16.1936L41.4577 16.1978L41.8404 15.876ZM45.5304 16.074L45.7954 16.498L45.7988 16.4958L45.5304 16.074ZM45.9264 15.858L46.1333 16.3132L45.9264 15.858ZM46.7004 15.984L46.3004 16.284L46.3067 16.2924L46.3134 16.3006L46.7004 15.984ZM46.7184 16.956L46.3023 16.6786L46.2966 16.6876L46.7184 16.956ZM46.2684 17.37L45.991 16.954L46.2684 17.37ZM43.5504 17.626C42.7733 17.626 42.1115 17.4571 41.5493 17.1344L41.0515 18.0016C41.7853 18.4229 42.6235 18.626 43.5504 18.626V17.626ZM41.5528 17.1364C41.0016 16.814 40.5676 16.3567 40.2489 15.7511L39.3639 16.2169C39.7652 16.9793 40.3272 17.578 41.048 17.9996L41.5528 17.1364ZM40.252 15.7573C39.9455 15.1547 39.7844 14.4428 39.7844 13.608H38.7844C38.7844 14.5732 38.9713 15.4453 39.3608 16.2107L40.252 15.7573ZM39.7844 13.608C39.7844 12.7628 39.9508 12.0399 40.2685 11.4257L39.3803 10.9663C38.978 11.7441 38.7844 12.6292 38.7844 13.608H39.7844ZM40.2654 11.4317C40.5952 10.8146 41.0468 10.3439 41.6238 10.0082L41.121 9.14383C40.378 9.57609 39.7976 10.1854 39.3834 10.9603L40.2654 11.4317ZM41.6238 10.0082C42.1989 9.67358 42.8663 9.5 43.6404 9.5V8.5C42.7105 8.5 41.8659 8.71042 41.121 9.14383L41.6238 10.0082ZM43.6404 9.5C44.0475 9.5 44.4567 9.55882 44.8694 9.67828L45.1474 8.71772C44.6481 8.57318 44.1453 8.5 43.6404 8.5V9.5ZM44.8727 9.67922C45.3006 9.79991 45.669 9.96164 45.9829 10.1604L46.5179 9.31559C46.1118 9.05836 45.6522 8.86009 45.1441 8.71677L44.8727 9.67922ZM45.9671 10.15C46.2661 10.3555 46.3264 10.5258 46.3264 10.656H47.3264C47.3264 10.0902 47.0027 9.64846 46.5337 9.32598L45.9671 10.15ZM46.3264 10.656C46.3264 10.7669 46.299 10.8319 46.2644 10.878L47.0644 11.478C47.2458 11.2361 47.3264 10.9531 47.3264 10.656H46.3264ZM46.2774 10.8614C46.2706 10.8697 46.266 10.8737 46.2643 10.8751C46.2627 10.8764 46.2627 10.8761 46.2642 10.8754C46.2657 10.8747 46.2664 10.8746 46.2654 10.8749C46.2642 10.8751 46.2595 10.876 46.2504 10.876V11.876C46.571 11.876 46.8501 11.7406 47.0514 11.4946L46.2774 10.8614ZM46.2504 10.876C46.2187 10.876 46.1796 10.8694 46.1295 10.8471L45.7233 11.7609C45.8892 11.8346 46.0661 11.876 46.2504 11.876V10.876ZM46.1692 10.8669C46.0745 10.8143 45.9465 10.7367 45.7828 10.6314L45.242 11.4726C45.4143 11.5833 45.5623 11.6737 45.6836 11.7411L46.1692 10.8669ZM45.7819 10.6309C45.4588 10.424 45.1436 10.2615 44.8373 10.1501L44.4955 11.0899C44.7172 11.1705 44.966 11.296 45.2429 11.4731L45.7819 10.6309ZM44.8634 10.1604C44.5329 10.0188 44.1559 9.958 43.7484 9.958V10.958C44.0609 10.958 44.2959 11.0052 44.4694 11.0796L44.8634 10.1604ZM43.7484 9.958C42.8066 9.958 42.0199 10.2837 41.4549 10.9676L42.2259 11.6044C42.5729 11.1843 43.0582 10.958 43.7484 10.958V9.958ZM41.4508 10.9726C40.912 11.6424 40.6744 12.5358 40.6744 13.59H41.6744C41.6744 12.6762 41.8808 12.0336 42.23 11.5994L41.4508 10.9726ZM40.6744 13.59C40.6744 14.6433 40.9117 15.5338 41.4542 16.1936L42.2266 15.5584C41.8811 15.1382 41.6744 14.5047 41.6744 13.59H40.6744ZM41.4577 16.1978C42.0144 16.8598 42.7966 17.168 43.7304 17.168V16.168C43.0321 16.168 42.5544 15.9482 42.2231 15.5542L41.4577 16.1978ZM43.7304 17.168C44.1397 17.168 44.5215 17.1066 44.8666 16.9716L44.5022 16.0404C44.2952 16.1214 44.0411 16.168 43.7304 16.168V17.168ZM44.8666 16.9716C45.1752 16.8508 45.4849 16.6921 45.7954 16.498L45.2654 15.65C44.9999 15.8159 44.7456 15.9452 44.5022 16.0404L44.8666 16.9716ZM45.7988 16.4958C45.9127 16.4234 46.0242 16.3628 46.1333 16.3132L45.7195 15.4028C45.5646 15.4732 45.4121 15.5566 45.262 15.6522L45.7988 16.4958ZM46.1333 16.3132C46.2214 16.2731 46.2698 16.268 46.2864 16.268V15.268C46.087 15.268 45.8954 15.3229 45.7195 15.4028L46.1333 16.3132ZM46.2864 16.268C46.2925 16.268 46.294 16.2686 46.2923 16.2682C46.2903 16.2678 46.2874 16.2668 46.2846 16.2653C46.2819 16.2639 46.2816 16.2632 46.2839 16.2652C46.2863 16.2673 46.2921 16.2729 46.3004 16.284L47.1004 15.684C46.9058 15.4246 46.6244 15.268 46.2864 15.268V16.268ZM46.3134 16.3006C46.3347 16.3266 46.3624 16.3759 46.3624 16.488H47.3624C47.3624 16.1921 47.2821 15.9054 47.0874 15.6674L46.3134 16.3006ZM46.3624 16.488C46.3624 16.5542 46.3454 16.6142 46.3024 16.6786L47.1344 17.2334C47.2834 17.0098 47.3624 16.7578 47.3624 16.488H46.3624ZM46.2966 16.6876C46.2667 16.7345 46.1824 16.8264 45.991 16.954L46.5457 17.786C46.7864 17.6256 47.0021 17.4415 47.1402 17.2244L46.2966 16.6876ZM45.991 16.954C45.6816 17.1603 45.312 17.326 44.8758 17.4459L45.141 18.4101C45.6648 18.266 46.1352 18.0597 46.5457 17.786L45.991 16.954ZM44.8758 17.4459C44.4385 17.5662 43.9971 17.626 43.5504 17.626V18.626C44.0877 18.626 44.6183 18.5538 45.141 18.4101L44.8758 17.4459ZM51.1896 17.568L50.9406 18.0016L50.9441 18.0036L51.1896 17.568ZM49.6776 15.984L49.2303 16.2077L49.2351 16.2169L49.6776 15.984ZM49.6776 11.16L49.2335 10.9303L49.2319 10.9333L49.6776 11.16ZM51.1896 9.558L50.9441 9.12241L50.9406 9.12437L51.1896 9.558ZM55.7436 9.558L55.4946 9.99164L55.4981 9.99358L55.7436 9.558ZM57.2556 11.16L56.8083 11.3837L56.8131 11.3929L57.2556 11.16ZM57.2556 15.984L56.8115 15.7543L56.8099 15.7573L57.2556 15.984ZM55.7436 17.568L55.4981 17.1324L55.4946 17.1344L55.7436 17.568ZM55.3116 15.894L54.9246 15.5774L54.9203 15.5827L55.3116 15.894ZM55.3116 11.268L54.9211 11.5804L54.9246 11.5846L55.3116 11.268ZM51.6396 11.268L52.0266 11.5846L52.03 11.5803L51.6396 11.268ZM51.6216 15.894L51.2302 16.2053L51.2346 16.2106L51.6216 15.894ZM53.4756 17.626C52.6853 17.626 52.0102 17.4566 51.4351 17.1324L50.9441 18.0036C51.689 18.4234 52.5378 18.626 53.4756 18.626V17.626ZM51.4385 17.1344C50.8757 16.8113 50.4375 16.3543 50.12 15.7511L49.2351 16.2169C49.6377 16.9817 50.2075 17.5807 50.9406 18.0016L51.4385 17.1344ZM50.1248 15.7604C49.817 15.1448 49.6556 14.4197 49.6556 13.572H48.6556C48.6556 14.5483 48.8421 15.4312 49.2304 16.2076L50.1248 15.7604ZM49.6556 13.572C49.6556 12.7109 49.8175 11.9876 50.1232 11.3867L49.2319 10.9333C48.8416 11.7004 48.6556 12.5851 48.6556 13.572H49.6556ZM50.1217 11.3897C50.4398 10.7746 50.878 10.3134 51.4385 9.99163L50.9406 9.12437C50.2052 9.54658 49.6353 10.1534 49.2335 10.9303L50.1217 11.3897ZM51.4351 9.99358C52.0102 9.66944 52.6853 9.5 53.4756 9.5V8.5C52.5378 8.5 51.689 8.70256 50.9441 9.12242L51.4351 9.99358ZM53.4756 9.5C54.266 9.5 54.9335 9.66951 55.4946 9.99163L55.9925 9.12437C55.2576 8.70249 54.4131 8.5 53.4756 8.5V9.5ZM55.4981 9.99358C56.0687 10.3152 56.5037 10.7742 56.8084 11.3836L57.7028 10.9364C57.3115 10.1538 56.7384 9.54478 55.9891 9.12242L55.4981 9.99358ZM56.8131 11.3929C57.1286 11.9923 57.2956 12.7134 57.2956 13.572H58.2956C58.2956 12.5826 58.1025 11.6957 57.698 10.9271L56.8131 11.3929ZM57.2956 13.572C57.2956 14.4172 57.1292 15.1401 56.8115 15.7543L57.6997 16.2137C58.102 15.4359 58.2956 14.5508 58.2956 13.572H57.2956ZM56.8099 15.7573C56.506 16.3547 56.0711 16.8095 55.4981 17.1324L55.9891 18.0036C56.7361 17.5825 57.3092 16.9813 57.7012 16.2107L56.8099 15.7573ZM55.4946 17.1344C54.9335 17.4565 54.266 17.626 53.4756 17.626V18.626C54.4131 18.626 55.2576 18.4235 55.9925 18.0016L55.4946 17.1344ZM53.4756 17.186C54.3994 17.186 55.1694 16.8759 55.7029 16.2053L54.9203 15.5827C54.6137 15.9681 54.1598 16.186 53.4756 16.186V17.186ZM55.6985 16.2106C56.2322 15.5584 56.4596 14.6524 56.4596 13.572H55.4596C55.4596 14.5316 55.255 15.1736 54.9246 15.5774L55.6985 16.2106ZM56.4596 13.572C56.4596 12.5018 56.2314 11.6027 55.6985 10.9514L54.9246 11.5846C55.2557 11.9893 55.4596 12.6262 55.4596 13.572H56.4596ZM55.702 10.9557C55.1606 10.2789 54.3946 9.958 53.4756 9.958V10.958C54.1406 10.958 54.5985 11.1771 54.9211 11.5803L55.702 10.9557ZM53.4756 9.958C52.5566 9.958 51.7905 10.2789 51.2491 10.9557L52.03 11.5803C52.3526 11.1771 52.8106 10.958 53.4756 10.958V9.958ZM51.2526 10.9514C50.7197 11.6027 50.4916 12.5018 50.4916 13.572H51.4916C51.4916 12.6262 51.6954 11.9893 52.0266 11.5846L51.2526 10.9514ZM50.4916 13.572C50.4916 14.6498 50.7119 15.5535 51.2303 16.2053L52.0129 15.5827C51.6913 15.1785 51.4916 14.5342 51.4916 13.572H50.4916ZM51.2346 16.2106C51.7789 16.8759 52.5514 17.186 53.4756 17.186V16.186C52.7917 16.186 52.3282 15.9681 52.0085 15.5774L51.2346 16.2106Z" fill="white"/>
</g>
</g>
<defs>
<filter id="filter0_bd" x="-14.7997" y="-7.5" width="97.0953" height="61.33" filterUnits="userSpaceOnUse" color-interpolation-filters="sRGB">
<feFlood flood-opacity="0" result="BackgroundImageFix"/>
<feGaussianBlur in="BackgroundImage" stdDeviation="2"/>
<feComposite in2="SourceAlpha" operator="in" result="effect1_backgroundBlur"/>
<feColorMatrix in="SourceAlpha" type="matrix" values="0 0 0 0 0 0 0 0 0 0 0 0 0 0 0 0 0 0 127 0"/>
<feOffset dy="8"/>
<feGaussianBlur stdDeviation="12"/>
<feColorMatrix type="matrix" values="0 0 0 0 0.0980392 0 0 0 0 0.12549 0 0 0 0 0.219608 0 0 0 0.03 0"/>
<feBlend mode="normal" in2="effect1_backgroundBlur" result="effect2_dropShadow"/>
<feBlend mode="normal" in="SourceGraphic" in2="effect2_dropShadow" result="shape"/>
</filter>
<radialGradient id="paint0_radial" cx="0" cy="0" r="1" gradientUnits="userSpaceOnUse" gradientTransform="translate(65 39.5943) rotate(-156.371) scale(69.857 51.3048)">
<stop stop-color="#0099FF"/>
<stop offset="1" stop-color="#00CCFF"/>
</radialGradient>
<linearGradient id="paint1_linear" x1="64.2329" y1="0.608693" x2="15.6323" y2="44.2829" gradientUnits="userSpaceOnUse">
<stop stop-color="white" stop-opacity="0.68"/>
<stop offset="1" stop-color="white" stop-opacity="0.32"/>
</linearGradient>
<linearGradient id="paint2_linear" x1="63.9041" y1="-1.43242e-06" x2="15.9954" y2="44.2392" gradientUnits="userSpaceOnUse">
<stop stop-color="#F2F2F2"/>
<stop offset="1" stop-color="white" stop-opacity="0.35"/>
</linearGradient>
<clipPath id="clip0">
<rect width="64" height="28" fill="white"/>
</clipPath>
</defs>
</svg>
