<?xml version="1.0" encoding="utf-8"?>
<!-- Generator: Adobe Illustrator 16.0.0, SVG Export Plug-In . SVG Version: 6.00 Build 0)  -->
<!DOCTYPE svg PUBLIC "-//W3C//DTD SVG 1.1//EN" "http://www.w3.org/Graphics/SVG/1.1/DTD/svg11.dtd">
<svg version="1.1" id="main" xmlns="http://www.w3.org/2000/svg" xmlns:xlink="http://www.w3.org/1999/xlink" x="0px" y="0px"
	 width="600px" height="200px" viewBox="0 0 600 200" enable-background="new 0 0 600 200" xml:space="preserve">
<linearGradient id="SVGID_1_" gradientUnits="userSpaceOnUse" x1="423.0469" y1="309.1514" x2="259.9829" y2="-438.413" gradientTransform="matrix(1 0 0 -1 -41.6602 36.04)">
	<stop  offset="0" style="stop-color:#3CE2FF"/>
	<stop  offset="0.2808" style="stop-color:#47D2FF"/>
	<stop  offset="1" style="stop-color:#11B3FF"/>
</linearGradient>
<rect x="-660" y="-440" fill="url(#SVGID_1_)" width="1920" height="1080"/>
<g id="레이어_2">
	
		<linearGradient id="SVGID_2_" gradientUnits="userSpaceOnUse" x1="-89.3398" y1="-394.46" x2="1831.6602" y2="-394.46" gradientTransform="matrix(1 0 0 -1 -41.6602 36.04)">
		<stop  offset="0" style="stop-color:#FFFFFF"/>
		<stop  offset="1" style="stop-color:#000000"/>
	</linearGradient>
	
		<rect x="-130.5" y="-109.5" display="none" fill="#404040" stroke="url(#SVGID_2_)" stroke-miterlimit="10" width="1920" height="1080"/>
</g>
<g opacity="0.94">
	
		<image overflow="visible" opacity="0.75" enable-background="new    " width="327" height="135" xlink:href="C7D6D5E3.png"  transform="matrix(1 0 0 1 59 31)">
	</image>
	<g>
		<g>
			<path fill="#FFFFFF" d="M135.223,69.102c0,17.399-14.335,31.599-31.901,31.599H68.998V157.5h-3.23V37.502h37.554
				C120.888,37.502,135.223,51.501,135.223,69.102z M131.992,69.102c0-15.8-12.922-28.4-28.67-28.4H68.998v56.799h34.324
				C119.272,97.501,131.992,84.901,131.992,69.102z"/>
			<path fill="#FFFFFF" d="M198.618,76.701v3.6c-2.423-0.8-4.846-1.2-7.672-1.2c-15.546,0-28.267,12.4-28.267,27.799v50.6h-3.23
				V77.501h3.23v15.8c5.047-10.2,15.951-17.399,28.267-17.399C193.772,75.901,196.195,76.301,198.618,76.701z"/>
			<path fill="#FFFFFF" d="M215.577,116.701v1.6c0.404,21,17.566,37.6,38.766,37.6c16.96,0,31.497-10.801,36.747-25.799h3.23
				c-5.451,16.799-21.402,29-39.977,29c-23.017,0-41.996-18.801-41.996-41.601c0-22.799,18.979-41.599,41.996-41.599
				c22.412,0,40.381,17,41.794,39.599v1.2H215.577z M215.778,113.5h77.128c-2.221-19.399-18.575-34.399-38.564-34.399
				C234.152,79.101,218.201,93.901,215.778,113.5z"/>
			<path fill="#FFFFFF" d="M379.724,77.501L347.419,157.5h-3.634L311.48,77.501h3.634l30.688,75.799l30.488-75.799H379.724z"/>
		</g>
	</g>
</g>
<linearGradient id="SVGID_3_" gradientUnits="userSpaceOnUse" x1="41.6602" y1="-63.96" x2="73.6602" y2="-63.96" gradientTransform="matrix(1 0 0 -1 -41.6602 36.04)">
	<stop  offset="0" style="stop-color:#FFFFFF;stop-opacity:0.8"/>
	<stop  offset="0.9" style="stop-color:#FFFFFF;stop-opacity:0.9"/>
	<stop  offset="0.9141" style="stop-color:#FFFFFF;stop-opacity:0.9"/>
	<stop  offset="1" style="stop-color:#FFFFFF;stop-opacity:0.9"/>
</linearGradient>
<rect fill="url(#SVGID_3_)" width="32" height="200"/>
</svg>
