<svg width="520px" height="200px" viewBox="0 0 520 200" version="1.1" xmlns="http://www.w3.org/2000/svg" xmlns:xlink="http://www.w3.org/1999/xlink">
    <!-- Generator: Sketch 45.1 (43504) - http://www.bohemiancoding.com/sketch -->
    <desc>Created with Sketch.</desc>
    <defs>
        <linearGradient x1="79.8842207%" y1="0%" x2="50%" y2="100%" id="linearGradient-1">
            <stop stop-color="#00EBFF" offset="0%"></stop>
            <stop stop-color="#00D3FF" offset="100%"></stop>
        </linearGradient>
    </defs>
    <g id="Page-1" stroke="none" stroke-width="1" fill="none" fill-rule="evenodd">
        <g id="Logo">
            <g id="Group">
                <rect id="Rectangle-2" fill="url(#linearGradient-1)" style="mix-blend-mode: color-burn;" x="0" y="0" width="520" height="200"></rect>
                <path d="M93.8580305,53.00002 C107.778028,53.00002 119.138025,64.2000177 119.138025,78.2800148 C119.138025,92.2000118 107.778028,103.560009 93.8580305,103.560009 L66.6580362,103.560009 L66.6580362,149 L64.0980367,149 L64.0980367,53.00002 L93.8580305,53.00002 Z M93.8580305,101.00001 C106.498028,101.00001 116.578026,90.9200121 116.578026,78.2800148 C116.578026,65.6400174 106.338028,55.5600195 93.8580305,55.5600195 L66.6580362,55.5600195 L66.6580362,101.00001 L93.8580305,101.00001 Z M162.109012,83.7200136 C152.349014,83.7200136 143.709016,89.4800124 139.709016,97.6400107 L139.709016,85.0000134 L137.149017,85.0000134 L137.149017,149 L139.709016,149 L139.709016,108.520008 C139.709016,96.200011 149.789014,86.2800131 162.109012,86.2800131 C164.349011,86.2800131 166.269011,86.600013 168.18901,87.2400129 L168.18901,84.3600135 C166.269011,84.0400136 164.349011,83.7200136 162.109012,83.7200136 Z M244.279984,116.360007 L180.439998,116.360007 L180.439998,117.640007 C180.759998,134.440003 194.359995,147.72 211.159991,147.72 C224.599988,147.72 236.119986,139.080002 240.279985,127.080005 L242.839985,127.080005 C238.519985,140.520002 225.879988,150.28 211.159991,150.28 C192.919995,150.28 177.879998,135.240003 177.879998,117.000007 C177.879998,98.7600105 192.919995,83.7200136 211.159991,83.7200136 C228.919987,83.7200136 243.159985,97.3200108 244.279984,115.400007 L244.279984,116.360007 Z M211.159991,86.2800131 C195.159995,86.2800131 182.519997,98.1200106 180.599998,113.800007 L241.719985,113.800007 C239.959985,98.2800106 226.999988,86.2800131 211.159991,86.2800131 Z M306.610969,85.0000134 L282.450974,145.640001 L258.130979,85.0000134 L255.250979,85.0000134 L280.850974,149 L283.730973,149 L309.330968,85.0000134 L306.610969,85.0000134 Z" id="Prev" stroke="#FFFFFF" stroke-width="4" fill="#FFFFFF"></path>
            </g>
        </g>
    </g>
</svg>
