<svg width="64" height="28" viewBox="0 0 64 28" fill="none" xmlns="http://www.w3.org/2000/svg">
<g clip-path="url(#clip0)">
<path fill-rule="evenodd" clip-rule="evenodd" d="M64 21C64 24.866 60.866 28 57 28L7 28C3.13401 28 3.8147e-06 24.866 3.8147e-06 21V7C3.8147e-06 3.13401 3.13401 0 7 0L57 0C60.866 0 64 3.13401 64 7V21Z" fill="url(#paint0_radial)"/>
<rect x="1.5" y="1.5" width="61" height="25" rx="5.5" fill="url(#paint1_linear)" fill-opacity="0.16"/>
<rect x="1.5" y="1.5" width="61" height="25" rx="5.5" stroke="url(#paint2_linear)" stroke-width="3" style="mix-blend-mode:soft-light"/>
<g filter="url(#filter0_bd)">
<path d="M13.4163 9C14.1723 9 14.8443 9.192 15.4323 9.576C16.0323 9.96 16.4943 10.5 16.8183 11.196C17.1543 11.892 17.3223 12.696 17.3223 13.608C17.3223 14.508 17.1603 15.3 16.8363 15.984C16.5123 16.668 16.0503 17.196 15.4503 17.568C14.8623 17.94 14.1843 18.126 13.4163 18.126C12.7563 18.126 12.1743 17.988 11.6703 17.712C11.1663 17.424 10.7823 17.016 10.5183 16.488V20.502C10.5183 20.754 10.4343 20.952 10.2663 21.096C10.1103 21.252 9.90027 21.33 9.63627 21.33C9.36027 21.33 9.13227 21.252 8.95227 21.096C8.78427 20.94 8.70027 20.73 8.70027 20.466V9.918C8.70027 9.654 8.78427 9.444 8.95227 9.288C9.12027 9.12 9.34227 9.036 9.61827 9.036C9.88227 9.036 10.0983 9.12 10.2663 9.288C10.4343 9.444 10.5183 9.654 10.5183 9.918V10.656C10.7823 10.128 11.1663 9.72 11.6703 9.432C12.1743 9.144 12.7563 9 13.4163 9ZM12.9843 16.686C13.7763 16.686 14.3883 16.422 14.8203 15.894C15.2523 15.354 15.4683 14.592 15.4683 13.608C15.4683 12.612 15.2463 11.838 14.8023 11.286C14.3703 10.734 13.7643 10.458 12.9843 10.458C12.1923 10.458 11.5803 10.728 11.1483 11.268C10.7283 11.808 10.5183 12.576 10.5183 13.572C10.5183 14.568 10.7283 15.336 11.1483 15.876C11.5803 16.416 12.1923 16.686 12.9843 16.686ZM25.113 9.036C25.689 9 25.977 9.246 25.977 9.774C25.977 10.038 25.911 10.236 25.779 10.368C25.647 10.5 25.419 10.578 25.095 10.602L24.555 10.656C23.799 10.728 23.235 10.992 22.863 11.448C22.503 11.904 22.323 12.456 22.323 13.104V17.226C22.323 17.514 22.239 17.73 22.071 17.874C21.903 18.018 21.687 18.09 21.423 18.09C21.159 18.09 20.937 18.018 20.757 17.874C20.589 17.73 20.505 17.514 20.505 17.226V9.9C20.505 9.624 20.589 9.414 20.757 9.27C20.937 9.114 21.159 9.036 21.423 9.036C21.663 9.036 21.861 9.114 22.017 9.27C22.185 9.414 22.269 9.618 22.269 9.882V10.746C22.509 10.218 22.857 9.816 23.313 9.54C23.769 9.264 24.285 9.102 24.861 9.054L25.113 9.036ZM34.9671 15.786C35.1351 15.786 35.2731 15.852 35.3811 15.984C35.4891 16.116 35.5431 16.284 35.5431 16.488C35.5431 16.836 35.3271 17.13 34.8951 17.37C34.4751 17.61 34.0131 17.796 33.5091 17.928C33.0171 18.06 32.5431 18.126 32.0871 18.126C30.6951 18.126 29.5971 17.724 28.7931 16.92C27.9891 16.104 27.5871 14.994 27.5871 13.59C27.5871 12.69 27.7611 11.892 28.1091 11.196C28.4691 10.5 28.9671 9.96 29.6031 9.576C30.2511 9.192 30.9831 9 31.7991 9C32.9751 9 33.9051 9.378 34.5891 10.134C35.2731 10.89 35.6151 11.91 35.6151 13.194C35.6151 13.674 35.3991 13.914 34.9671 13.914H29.4051C29.5251 15.774 30.4191 16.704 32.0871 16.704C32.5311 16.704 32.9151 16.644 33.2391 16.524C33.5631 16.404 33.9051 16.248 34.2651 16.056C34.3011 16.032 34.3971 15.984 34.5531 15.912C34.7211 15.828 34.8591 15.786 34.9671 15.786ZM31.8351 10.332C31.1391 10.332 30.5811 10.554 30.1611 10.998C29.7411 11.442 29.4891 12.066 29.4051 12.87H34.0491C34.0131 12.054 33.8031 11.43 33.4191 10.998C33.0471 10.554 32.5191 10.332 31.8351 10.332ZM42.5504 18.126C41.6984 18.126 40.9484 17.94 40.3004 17.568C39.6644 17.196 39.1664 16.668 38.8064 15.984C38.4584 15.3 38.2844 14.508 38.2844 13.608C38.2844 12.696 38.4644 11.892 38.8244 11.196C39.1964 10.5 39.7124 9.96 40.3724 9.576C41.0324 9.192 41.7884 9 42.6404 9C43.0964 9 43.5524 9.066 44.0084 9.198C44.4764 9.33 44.8904 9.51 45.2504 9.738C45.6344 10.002 45.8264 10.308 45.8264 10.656C45.8264 10.86 45.7724 11.034 45.6644 11.178C45.5564 11.31 45.4184 11.376 45.2504 11.376C45.1424 11.376 45.0344 11.352 44.9264 11.304C44.8184 11.244 44.6804 11.16 44.5124 11.052C44.2124 10.86 43.9304 10.716 43.6664 10.62C43.4144 10.512 43.1084 10.458 42.7484 10.458C41.9324 10.458 41.2964 10.734 40.8404 11.286C40.3964 11.838 40.1744 12.606 40.1744 13.59C40.1744 14.574 40.3964 15.336 40.8404 15.876C41.2844 16.404 41.9144 16.668 42.7304 16.668C43.0904 16.668 43.4084 16.614 43.6844 16.506C43.9604 16.398 44.2424 16.254 44.5304 16.074C44.6624 15.99 44.7944 15.918 44.9264 15.858C45.0584 15.798 45.1784 15.768 45.2864 15.768C45.4544 15.768 45.5924 15.84 45.7004 15.984C45.8084 16.116 45.8624 16.284 45.8624 16.488C45.8624 16.656 45.8144 16.812 45.7184 16.956C45.6344 17.088 45.4844 17.226 45.2684 17.37C44.9084 17.61 44.4884 17.796 44.0084 17.928C43.5284 18.06 43.0424 18.126 42.5504 18.126ZM52.4756 18.126C51.6116 18.126 50.8496 17.94 50.1896 17.568C49.5416 17.196 49.0376 16.668 48.6776 15.984C48.3296 15.288 48.1556 14.484 48.1556 13.572C48.1556 12.648 48.3296 11.844 48.6776 11.16C49.0376 10.464 49.5416 9.93 50.1896 9.558C50.8496 9.186 51.6116 9 52.4756 9C53.3396 9 54.0956 9.186 54.7436 9.558C55.4036 9.93 55.9076 10.464 56.2556 11.16C56.6156 11.844 56.7956 12.648 56.7956 13.572C56.7956 14.484 56.6156 15.288 56.2556 15.984C55.9076 16.668 55.4036 17.196 54.7436 17.568C54.0956 17.94 53.3396 18.126 52.4756 18.126ZM52.4756 16.686C53.2796 16.686 53.8916 16.422 54.3116 15.894C54.7436 15.366 54.9596 14.592 54.9596 13.572C54.9596 12.564 54.7436 11.796 54.3116 11.268C53.8796 10.728 53.2676 10.458 52.4756 10.458C51.6836 10.458 51.0716 10.728 50.6396 11.268C50.2076 11.796 49.9916 12.564 49.9916 13.572C49.9916 14.592 50.2016 15.366 50.6216 15.894C51.0536 16.422 51.6716 16.686 52.4756 16.686Z" fill="white"/>
<path d="M15.4323 9.576L15.1589 9.99465L15.1627 9.99714L15.4323 9.576ZM16.8183 11.196L16.3649 11.407L16.368 11.4134L16.8183 11.196ZM16.8363 15.984L16.3844 15.77L16.8363 15.984ZM15.4503 17.568L15.1868 17.143L15.183 17.1455L15.4503 17.568ZM11.6703 17.712L11.4222 18.1462L11.4301 18.1505L11.6703 17.712ZM10.5183 16.488L10.9655 16.2644L10.0183 16.488H10.5183ZM10.2663 21.096L9.94088 20.7164L9.9263 20.7289L9.91272 20.7424L10.2663 21.096ZM8.95227 21.096L8.61205 21.4624L8.61833 21.4682L8.62481 21.4738L8.95227 21.096ZM8.95227 9.288L9.2925 9.6544L9.29928 9.6481L9.30583 9.64155L8.95227 9.288ZM10.2663 9.288L9.91272 9.64155L9.91927 9.6481L9.92605 9.6544L10.2663 9.288ZM10.5183 10.656H10.0183L10.9655 10.8796L10.5183 10.656ZM11.6703 9.432L11.9183 9.86612L11.6703 9.432ZM14.8203 15.894L15.2073 16.2106L15.2107 16.2063L14.8203 15.894ZM14.8023 11.286L14.4085 11.5942L14.4127 11.5994L14.8023 11.286ZM11.1483 11.268L10.7578 10.9556L10.7536 10.961L11.1483 11.268ZM11.1483 15.876L10.7536 16.183L10.7578 16.1883L11.1483 15.876ZM13.4163 9.5C14.0829 9.5 14.6584 9.66782 15.1589 9.99463L15.7057 9.15736C15.0301 8.71618 14.2616 8.5 13.4163 8.5V9.5ZM15.1627 9.99714C15.6765 10.326 16.0778 10.7901 16.365 11.407L17.2716 10.985C16.9107 10.2099 16.388 9.59403 15.7018 9.15486L15.1627 9.99714ZM16.368 11.4134C16.6659 12.0304 16.8223 12.7578 16.8223 13.608H17.8223C17.8223 12.6342 17.6427 11.7536 17.2685 10.9786L16.368 11.4134ZM16.8223 13.608C16.8223 14.4478 16.6713 15.1643 16.3844 15.77L17.2881 16.198C17.6493 15.4357 17.8223 14.5682 17.8223 13.608H16.8223ZM16.3844 15.77C16.0985 16.3735 15.6991 16.8254 15.1868 17.143L15.7137 17.993C16.4015 17.5666 16.9261 16.9625 17.2881 16.198L16.3844 15.77ZM15.183 17.1455C14.6831 17.4617 14.0998 17.626 13.4163 17.626V18.626C14.2688 18.626 15.0414 18.4183 15.7176 17.9905L15.183 17.1455ZM13.4163 17.626C12.8276 17.626 12.3305 17.5035 11.9104 17.2735L11.4301 18.1505C12.0181 18.4725 12.6849 18.626 13.4163 18.626V17.626ZM11.9183 17.2779C11.5016 17.0397 11.1861 16.7057 10.9655 16.2644L10.0711 16.7116C10.3784 17.3263 10.831 17.8083 11.4222 18.1461L11.9183 17.2779ZM10.0183 16.488V20.502H11.0183V16.488H10.0183ZM10.0183 20.502C10.0183 20.6307 9.98196 20.6812 9.94088 20.7164L10.5917 21.4756C10.8866 21.2228 11.0183 20.8773 11.0183 20.502H10.0183ZM9.91272 20.7424C9.86855 20.7866 9.7956 20.83 9.63627 20.83V21.83C10.0049 21.83 10.352 21.7174 10.6198 21.4496L9.91272 20.7424ZM9.63627 20.83C9.46034 20.83 9.35463 20.7831 9.27974 20.7182L8.62481 21.4738C8.90992 21.7209 9.2602 21.83 9.63627 21.83V20.83ZM9.2925 20.7296C9.24217 20.6829 9.20027 20.6141 9.20027 20.466H8.20027C8.20027 20.8459 8.32638 21.1971 8.61205 21.4624L9.2925 20.7296ZM9.20027 20.466V9.918H8.20027V20.466H9.20027ZM9.20027 9.918C9.20027 9.76992 9.24217 9.70113 9.2925 9.6544L8.61205 8.9216C8.32638 9.18687 8.20027 9.53808 8.20027 9.918H9.20027ZM9.30583 9.64155C9.36485 9.58253 9.4517 9.536 9.61827 9.536V8.536C9.23284 8.536 8.8757 8.65747 8.59872 8.93445L9.30583 9.64155ZM9.61827 9.536C9.76581 9.536 9.84932 9.57815 9.91272 9.64155L10.6198 8.93445C10.3472 8.66184 9.99873 8.536 9.61827 8.536V9.536ZM9.92605 9.6544C9.97638 9.70113 10.0183 9.76992 10.0183 9.918H11.0183C11.0183 9.53808 10.8922 9.18687 10.6065 8.9216L9.92605 9.6544ZM10.0183 9.918V10.656H11.0183V9.918H10.0183ZM10.9655 10.8796C11.1861 10.4383 11.5016 10.1043 11.9183 9.86612L11.4222 8.99788C10.831 9.33573 10.3784 9.81769 10.0711 10.4324L10.9655 10.8796ZM11.9183 9.86612C12.3369 9.62693 12.8312 9.5 13.4163 9.5V8.5C12.6814 8.5 12.0116 8.66107 11.4222 8.99788L11.9183 9.86612ZM12.9843 17.186C13.8993 17.186 14.6644 16.8741 15.2073 16.2106L14.4333 15.5774C14.1121 15.9699 13.6533 16.186 12.9843 16.186V17.186ZM15.2107 16.2063C15.7383 15.5469 15.9683 14.6586 15.9683 13.608H14.9683C14.9683 14.5254 14.7663 15.1611 14.4298 15.5817L15.2107 16.2063ZM15.9683 13.608C15.9683 12.5435 15.7314 11.6434 15.1919 10.9726L14.4127 11.5994C14.7612 12.0326 14.9683 12.6805 14.9683 13.608H15.9683ZM15.196 10.9778C14.6577 10.29 13.8982 9.958 12.9843 9.958V10.958C13.6303 10.958 14.0829 11.178 14.4085 11.5942L15.196 10.9778ZM12.9843 9.958C12.0653 9.958 11.2992 10.2789 10.7578 10.9557L11.5387 11.5803C11.8613 11.1771 12.3193 10.958 12.9843 10.958V9.958ZM10.7536 10.961C10.2404 11.6209 10.0183 12.5138 10.0183 13.572H11.0183C11.0183 12.6382 11.2162 11.9951 11.5429 11.575L10.7536 10.961ZM10.0183 13.572C10.0183 14.6302 10.2404 15.5231 10.7536 16.183L11.5429 15.569C11.2162 15.1489 11.0183 14.5058 11.0183 13.572H10.0183ZM10.7578 16.1883C11.2992 16.8651 12.0653 17.186 12.9843 17.186V16.186C12.3193 16.186 11.8613 15.9669 11.5387 15.5637L10.7578 16.1883ZM25.113 9.036L25.0818 8.53695L25.0774 8.53727L25.113 9.036ZM25.779 10.368L25.4255 10.0144L25.779 10.368ZM25.095 10.602L25.0581 10.1032L25.0453 10.1045L25.095 10.602ZM24.555 10.656L24.6024 11.1538L24.6048 11.1535L24.555 10.656ZM22.863 11.448L22.4756 11.1319L22.4706 11.1382L22.863 11.448ZM22.071 17.874L22.3964 18.2536L22.071 17.874ZM20.757 17.874L20.4316 18.2536L20.4381 18.2591L20.4447 18.2644L20.757 17.874ZM20.757 9.27L21.0824 9.64963L21.0845 9.64784L20.757 9.27ZM22.017 9.27L21.6635 9.62355L21.6771 9.63713L21.6916 9.64963L22.017 9.27ZM22.269 10.746H21.769L22.7242 10.9529L22.269 10.746ZM23.313 9.54L23.5719 9.96775L23.313 9.54ZM24.861 9.054L24.8254 8.55524L24.8195 8.55573L24.861 9.054ZM25.1442 9.53503C25.369 9.52098 25.4321 9.57006 25.4363 9.57369C25.4379 9.57504 25.4453 9.58084 25.4544 9.60524C25.4648 9.63308 25.477 9.68571 25.477 9.774H26.477C26.477 9.42384 26.3798 9.06441 26.0858 8.81331C25.802 8.57094 25.4331 8.51502 25.0819 8.53697L25.1442 9.53503ZM25.477 9.774C25.477 9.96093 25.4306 10.0093 25.4255 10.0144L26.1326 10.7216C26.3914 10.4627 26.477 10.1151 26.477 9.774H25.477ZM25.4255 10.0144C25.4268 10.0132 25.4093 10.0312 25.3472 10.0524C25.2848 10.0738 25.1913 10.0935 25.0581 10.1034L25.132 11.1006C25.4951 11.0737 25.8724 10.9818 26.1326 10.7216L25.4255 10.0144ZM25.0453 10.1045L24.5053 10.1585L24.6048 11.1535L25.1448 11.0995L25.0453 10.1045ZM24.5076 10.1583C23.659 10.2391 22.9547 10.5446 22.4756 11.1319L23.2505 11.7641C23.5153 11.4394 23.939 11.2169 24.6024 11.1537L24.5076 10.1583ZM22.4706 11.1382C22.0329 11.6926 21.823 12.3573 21.823 13.104H22.823C22.823 12.5547 22.9732 12.1154 23.2555 11.7578L22.4706 11.1382ZM21.823 13.104V17.226H22.823V13.104H21.823ZM21.823 17.226C21.823 17.4151 21.7715 17.4722 21.7456 17.4944L22.3964 18.2536C22.7066 17.9878 22.823 17.6129 22.823 17.226H21.823ZM21.7456 17.4944C21.6851 17.5463 21.5918 17.59 21.423 17.59V18.59C21.7822 18.59 22.121 18.4897 22.3964 18.2536L21.7456 17.4944ZM21.423 17.59C21.2552 17.59 21.1481 17.5465 21.0694 17.4836L20.4447 18.2644C20.726 18.4895 21.0628 18.59 21.423 18.59V17.59ZM21.0824 17.4944C21.0566 17.4722 21.005 17.4151 21.005 17.226H20.005C20.005 17.6129 20.1215 17.9878 20.4316 18.2536L21.0824 17.4944ZM21.005 17.226V9.9H20.005V17.226H21.005ZM21.005 9.9C21.005 9.73082 21.0519 9.67582 21.0824 9.64963L20.4316 8.89037C20.1262 9.15218 20.005 9.51718 20.005 9.9H21.005ZM21.0845 9.64784C21.1636 9.57933 21.2653 9.536 21.423 9.536V8.536C21.0527 8.536 20.7105 8.64867 20.4296 8.89216L21.0845 9.64784ZM21.423 9.536C21.5433 9.536 21.61 9.57003 21.6635 9.62355L22.3706 8.91645C22.1121 8.65797 21.7828 8.536 21.423 8.536V9.536ZM21.6916 9.64963C21.7273 9.68016 21.769 9.73296 21.769 9.882H22.769C22.769 9.50304 22.6428 9.14784 22.3424 8.89037L21.6916 9.64963ZM21.769 9.882V10.746H22.769V9.882H21.769ZM22.7242 10.9529C22.9264 10.5081 23.2097 10.187 23.5719 9.96775L23.0541 9.11225C22.5043 9.44503 22.0917 9.92785 21.8139 10.5391L22.7242 10.9529ZM23.5719 9.96775C23.9564 9.73502 24.3969 9.59441 24.9026 9.55227L24.8195 8.55573C24.1732 8.60959 23.5816 8.79297 23.0541 9.11225L23.5719 9.96775ZM24.8967 9.55273L25.1487 9.53473L25.0774 8.53727L24.8254 8.55527L24.8967 9.55273ZM34.8951 17.37L34.6522 16.9329L34.647 16.9359L34.8951 17.37ZM33.5091 17.928L33.3824 17.4443L33.3795 17.4451L33.5091 17.928ZM28.7931 16.92L28.4369 17.2709L28.4395 17.2736L28.7931 16.92ZM28.1091 11.196L27.6649 10.9663L27.6618 10.9724L28.1091 11.196ZM29.6031 9.576L29.3481 9.14584L29.3446 9.14797L29.6031 9.576ZM29.4051 13.914V13.414H28.8718L28.9061 13.9462L29.4051 13.914ZM33.2391 16.524L33.0654 16.0551L33.2391 16.524ZM34.2651 16.056L34.5003 16.4972L34.522 16.4856L34.5424 16.472L34.2651 16.056ZM34.5531 15.912L34.7626 16.366L34.7697 16.3627L34.7767 16.3592L34.5531 15.912ZM30.1611 10.998L29.7978 10.6544L30.1611 10.998ZM29.4051 12.87L28.9078 12.818L28.8501 13.37H29.4051V12.87ZM34.0491 12.87V13.37H34.5716L34.5486 12.848L34.0491 12.87ZM33.4191 10.998L33.0358 11.3191L33.0405 11.3247L33.0454 11.3302L33.4191 10.998ZM34.9671 16.286C34.9762 16.286 34.9808 16.2869 34.982 16.2871C34.983 16.2874 34.9823 16.2873 34.9808 16.2866C34.9794 16.2859 34.9793 16.2856 34.9809 16.2869C34.9827 16.2883 34.9872 16.2923 34.9941 16.3006L35.768 15.6674C35.5667 15.4214 35.2876 15.286 34.9671 15.286V16.286ZM34.9941 16.3006C35.0153 16.3266 35.0431 16.3759 35.0431 16.488H36.0431C36.0431 16.1921 35.9628 15.9054 35.768 15.6674L34.9941 16.3006ZM35.0431 16.488C35.0431 16.5826 35.0002 16.7396 34.6522 16.9329L35.1379 17.8071C35.654 17.5204 36.0431 17.0894 36.0431 16.488H35.0431ZM34.647 16.9359C34.2679 17.1525 33.8472 17.3226 33.3824 17.4443L33.6357 18.4117C34.1789 18.2694 34.6822 18.0675 35.1431 17.8041L34.647 16.9359ZM33.3795 17.4451C32.9249 17.567 32.4945 17.626 32.0871 17.626V18.626C32.5916 18.626 33.1092 18.553 33.6386 18.4109L33.3795 17.4451ZM32.0871 17.626C30.796 17.626 29.8366 17.2565 29.1466 16.5664L28.4395 17.2736C29.3575 18.1915 30.5941 18.626 32.0871 18.626V17.626ZM29.1492 16.5691C28.4573 15.8668 28.0871 14.8941 28.0871 13.59H27.0871C27.0871 15.0939 27.5208 16.3412 28.4369 17.2709L29.1492 16.5691ZM28.0871 13.59C28.0871 12.7555 28.248 12.0361 28.5563 11.4196L27.6618 10.9724C27.2741 11.7479 27.0871 12.6245 27.0871 13.59H28.0871ZM28.5532 11.4257C28.8732 10.807 29.3089 10.3377 29.8615 10.004L29.3446 9.14797C28.6252 9.58233 28.0649 10.193 27.6649 10.9663L28.5532 11.4257ZM29.858 10.0061C30.4224 9.67166 31.065 9.5 31.7991 9.5V8.5C30.9011 8.5 30.0797 8.71234 29.3482 9.14585L29.858 10.0061ZM31.7991 9.5C32.8577 9.5 33.644 9.83472 34.2183 10.4695L34.9598 9.79854C34.1661 8.92128 33.0925 8.5 31.7991 8.5V9.5ZM34.2183 10.4695C34.7991 11.1115 35.1151 12.0006 35.1151 13.194H36.1151C36.1151 11.8194 35.747 10.6685 34.9598 9.79854L34.2183 10.4695ZM35.1151 13.194C35.1151 13.3692 35.0745 13.4072 35.0814 13.3995C35.0973 13.3818 35.0916 13.414 34.9671 13.414V14.414C35.2745 14.414 35.5928 14.3262 35.8247 14.0685C36.0476 13.8208 36.1151 13.4988 36.1151 13.194H35.1151ZM34.9671 13.414H29.4051V14.414H34.9671V13.414ZM28.9061 13.9462C28.9704 14.9427 29.2466 15.772 29.8051 16.353C30.3719 16.9426 31.1589 17.204 32.0871 17.204V16.204C31.3472 16.204 30.8532 16.0004 30.526 15.66C30.1905 15.311 29.9597 14.7453 29.904 13.8818L28.9061 13.9462ZM32.0871 17.204C32.5742 17.204 33.0198 17.1384 33.4127 16.9929L33.0654 16.0551C32.8103 16.1496 32.4879 16.204 32.0871 16.204V17.204ZM33.4127 16.9929C33.7612 16.8638 34.1239 16.6979 34.5003 16.4972L34.0298 15.6148C33.6862 15.7981 33.3649 15.9442 33.0654 16.0551L33.4127 16.9929ZM34.5424 16.472C34.5334 16.4781 34.5313 16.4787 34.5427 16.4724C34.5523 16.4672 34.5669 16.4596 34.5877 16.4492C34.6291 16.4285 34.6869 16.4009 34.7626 16.366L34.3435 15.458C34.2007 15.524 34.0635 15.5895 33.9877 15.64L34.5424 16.472ZM34.7767 16.3592C34.8426 16.3262 34.8926 16.3067 34.9281 16.2958C34.9647 16.2847 34.9758 16.286 34.9671 16.286V15.286C34.7438 15.286 34.5227 15.3682 34.3294 15.4648L34.7767 16.3592ZM31.8351 9.832C31.0226 9.832 30.3257 10.0963 29.7978 10.6544L30.5243 11.3416C30.8364 11.0117 31.2556 10.832 31.8351 10.832V9.832ZM29.7978 10.6544C29.2811 11.2006 28.9995 11.9399 28.9078 12.818L29.9023 12.922C29.9786 12.1921 30.201 11.6834 30.5243 11.3416L29.7978 10.6544ZM29.4051 13.37H34.0491V12.37H29.4051V13.37ZM34.5486 12.848C34.5096 11.9638 34.2792 11.213 33.7928 10.6658L33.0454 11.3302C33.3269 11.647 33.5166 12.1442 33.5495 12.892L34.5486 12.848ZM33.8023 10.6769C33.3178 10.0986 32.6373 9.832 31.8351 9.832V10.832C32.4008 10.832 32.7763 11.0094 33.0358 11.3191L33.8023 10.6769ZM40.3004 17.568L40.0479 17.9996L40.0515 18.0016L40.3004 17.568ZM38.8064 15.984L38.3607 16.2108L38.3639 16.2169L38.8064 15.984ZM38.8244 11.196L38.3834 10.9603L38.3803 10.9663L38.8244 11.196ZM40.3724 9.576L40.121 9.14383L40.3724 9.576ZM44.0084 9.198L43.8694 9.67829L43.8727 9.67922L44.0084 9.198ZM45.2504 9.738L45.5337 9.32598L45.5259 9.32064L45.5179 9.31559L45.2504 9.738ZM45.6644 11.178L46.0514 11.4946L46.0581 11.4864L46.0644 11.478L45.6644 11.178ZM44.9264 11.304L44.6836 11.7411L44.703 11.7519L44.7233 11.7609L44.9264 11.304ZM44.5124 11.052L44.7828 10.6314L44.7819 10.6309L44.5124 11.052ZM43.6664 10.62L43.4694 11.0796L43.4823 11.0851L43.4955 11.0899L43.6664 10.62ZM40.8404 11.286L40.4549 10.9675L40.4508 10.9726L40.8404 11.286ZM40.8404 15.876L40.4542 16.1936L40.4577 16.1978L40.8404 15.876ZM44.5304 16.074L44.7954 16.498L44.7988 16.4958L44.5304 16.074ZM44.9264 15.858L45.1333 16.3132L44.9264 15.858ZM45.7004 15.984L45.3004 16.284L45.3067 16.2924L45.3134 16.3006L45.7004 15.984ZM45.7184 16.956L45.3023 16.6786L45.2966 16.6876L45.7184 16.956ZM45.2684 17.37L44.991 16.954L45.2684 17.37ZM42.5504 17.626C41.7733 17.626 41.1115 17.4571 40.5493 17.1344L40.0515 18.0016C40.7853 18.4229 41.6235 18.626 42.5504 18.626V17.626ZM40.5528 17.1364C40.0016 16.814 39.5676 16.3567 39.2489 15.7511L38.3639 16.2169C38.7652 16.9793 39.3272 17.578 40.048 17.9996L40.5528 17.1364ZM39.252 15.7573C38.9455 15.1547 38.7844 14.4428 38.7844 13.608H37.7844C37.7844 14.5732 37.9713 15.4453 38.3608 16.2107L39.252 15.7573ZM38.7844 13.608C38.7844 12.7628 38.9508 12.0399 39.2685 11.4257L38.3803 10.9663C37.978 11.7441 37.7844 12.6292 37.7844 13.608H38.7844ZM39.2654 11.4317C39.5952 10.8146 40.0468 10.3439 40.6238 10.0082L40.121 9.14383C39.378 9.57609 38.7976 10.1854 38.3834 10.9603L39.2654 11.4317ZM40.6238 10.0082C41.1989 9.67358 41.8663 9.5 42.6404 9.5V8.5C41.7105 8.5 40.8659 8.71042 40.121 9.14383L40.6238 10.0082ZM42.6404 9.5C43.0475 9.5 43.4567 9.55882 43.8694 9.67828L44.1474 8.71772C43.6481 8.57318 43.1453 8.5 42.6404 8.5V9.5ZM43.8727 9.67922C44.3006 9.79991 44.669 9.96164 44.9829 10.1604L45.5179 9.31559C45.1118 9.05836 44.6522 8.86009 44.1441 8.71677L43.8727 9.67922ZM44.9671 10.15C45.2661 10.3555 45.3264 10.5258 45.3264 10.656H46.3264C46.3264 10.0902 46.0027 9.64846 45.5337 9.32598L44.9671 10.15ZM45.3264 10.656C45.3264 10.7669 45.299 10.8319 45.2644 10.878L46.0644 11.478C46.2458 11.2361 46.3264 10.9531 46.3264 10.656H45.3264ZM45.2774 10.8614C45.2706 10.8697 45.266 10.8737 45.2643 10.8751C45.2627 10.8764 45.2627 10.8761 45.2642 10.8754C45.2657 10.8747 45.2664 10.8746 45.2654 10.8749C45.2642 10.8751 45.2595 10.876 45.2504 10.876V11.876C45.571 11.876 45.8501 11.7406 46.0514 11.4946L45.2774 10.8614ZM45.2504 10.876C45.2187 10.876 45.1796 10.8694 45.1295 10.8471L44.7233 11.7609C44.8892 11.8346 45.0661 11.876 45.2504 11.876V10.876ZM45.1692 10.8669C45.0745 10.8143 44.9465 10.7367 44.7828 10.6314L44.242 11.4726C44.4143 11.5833 44.5623 11.6737 44.6836 11.7411L45.1692 10.8669ZM44.7819 10.6309C44.4588 10.424 44.1436 10.2615 43.8373 10.1501L43.4955 11.0899C43.7172 11.1705 43.966 11.296 44.2429 11.4731L44.7819 10.6309ZM43.8634 10.1604C43.5329 10.0188 43.1559 9.958 42.7484 9.958V10.958C43.0609 10.958 43.2959 11.0052 43.4694 11.0796L43.8634 10.1604ZM42.7484 9.958C41.8066 9.958 41.0199 10.2837 40.4549 10.9676L41.2259 11.6044C41.5729 11.1843 42.0582 10.958 42.7484 10.958V9.958ZM40.4508 10.9726C39.912 11.6424 39.6744 12.5358 39.6744 13.59H40.6744C40.6744 12.6762 40.8808 12.0336 41.23 11.5994L40.4508 10.9726ZM39.6744 13.59C39.6744 14.6433 39.9117 15.5338 40.4542 16.1936L41.2266 15.5584C40.8811 15.1382 40.6744 14.5047 40.6744 13.59H39.6744ZM40.4577 16.1978C41.0144 16.8598 41.7966 17.168 42.7304 17.168V16.168C42.0321 16.168 41.5544 15.9482 41.2231 15.5542L40.4577 16.1978ZM42.7304 17.168C43.1397 17.168 43.5215 17.1066 43.8666 16.9716L43.5022 16.0404C43.2952 16.1214 43.0411 16.168 42.7304 16.168V17.168ZM43.8666 16.9716C44.1752 16.8508 44.4849 16.6921 44.7954 16.498L44.2654 15.65C43.9999 15.8159 43.7456 15.9452 43.5022 16.0404L43.8666 16.9716ZM44.7988 16.4958C44.9127 16.4234 45.0242 16.3628 45.1333 16.3132L44.7195 15.4028C44.5646 15.4732 44.4121 15.5566 44.262 15.6522L44.7988 16.4958ZM45.1333 16.3132C45.2214 16.2731 45.2698 16.268 45.2864 16.268V15.268C45.087 15.268 44.8954 15.3229 44.7195 15.4028L45.1333 16.3132ZM45.2864 16.268C45.2925 16.268 45.294 16.2686 45.2923 16.2682C45.2903 16.2678 45.2874 16.2668 45.2846 16.2653C45.2819 16.2639 45.2816 16.2632 45.2839 16.2652C45.2863 16.2673 45.2921 16.2729 45.3004 16.284L46.1004 15.684C45.9058 15.4246 45.6244 15.268 45.2864 15.268V16.268ZM45.3134 16.3006C45.3347 16.3266 45.3624 16.3759 45.3624 16.488H46.3624C46.3624 16.1921 46.2821 15.9054 46.0874 15.6674L45.3134 16.3006ZM45.3624 16.488C45.3624 16.5542 45.3454 16.6142 45.3024 16.6786L46.1344 17.2334C46.2834 17.0098 46.3624 16.7578 46.3624 16.488H45.3624ZM45.2966 16.6876C45.2667 16.7345 45.1824 16.8264 44.991 16.954L45.5457 17.786C45.7864 17.6256 46.0021 17.4415 46.1402 17.2244L45.2966 16.6876ZM44.991 16.954C44.6816 17.1603 44.312 17.326 43.8758 17.4459L44.141 18.4101C44.6648 18.266 45.1352 18.0597 45.5457 17.786L44.991 16.954ZM43.8758 17.4459C43.4385 17.5662 42.9971 17.626 42.5504 17.626V18.626C43.0877 18.626 43.6183 18.5538 44.141 18.4101L43.8758 17.4459ZM50.1896 17.568L49.9406 18.0016L49.9441 18.0036L50.1896 17.568ZM48.6776 15.984L48.2303 16.2077L48.2351 16.2169L48.6776 15.984ZM48.6776 11.16L48.2335 10.9303L48.2319 10.9333L48.6776 11.16ZM50.1896 9.558L49.9441 9.12241L49.9406 9.12437L50.1896 9.558ZM54.7436 9.558L54.4946 9.99164L54.4981 9.99358L54.7436 9.558ZM56.2556 11.16L55.8083 11.3837L55.8131 11.3929L56.2556 11.16ZM56.2556 15.984L55.8115 15.7543L55.8099 15.7573L56.2556 15.984ZM54.7436 17.568L54.4981 17.1324L54.4946 17.1344L54.7436 17.568ZM54.3116 15.894L53.9246 15.5774L53.9203 15.5827L54.3116 15.894ZM54.3116 11.268L53.9211 11.5804L53.9246 11.5846L54.3116 11.268ZM50.6396 11.268L51.0266 11.5846L51.03 11.5803L50.6396 11.268ZM50.6216 15.894L50.2302 16.2053L50.2346 16.2106L50.6216 15.894ZM52.4756 17.626C51.6853 17.626 51.0102 17.4566 50.4351 17.1324L49.9441 18.0036C50.689 18.4234 51.5378 18.626 52.4756 18.626V17.626ZM50.4385 17.1344C49.8757 16.8113 49.4375 16.3543 49.12 15.7511L48.2351 16.2169C48.6377 16.9817 49.2075 17.5807 49.9406 18.0016L50.4385 17.1344ZM49.1248 15.7604C48.817 15.1448 48.6556 14.4197 48.6556 13.572H47.6556C47.6556 14.5483 47.8421 15.4312 48.2304 16.2076L49.1248 15.7604ZM48.6556 13.572C48.6556 12.7109 48.8175 11.9876 49.1232 11.3867L48.2319 10.9333C47.8416 11.7004 47.6556 12.5851 47.6556 13.572H48.6556ZM49.1217 11.3897C49.4398 10.7746 49.878 10.3134 50.4385 9.99163L49.9406 9.12437C49.2052 9.54658 48.6353 10.1534 48.2335 10.9303L49.1217 11.3897ZM50.4351 9.99358C51.0102 9.66944 51.6853 9.5 52.4756 9.5V8.5C51.5378 8.5 50.689 8.70256 49.9441 9.12242L50.4351 9.99358ZM52.4756 9.5C53.266 9.5 53.9335 9.66951 54.4946 9.99163L54.9925 9.12437C54.2576 8.70249 53.4131 8.5 52.4756 8.5V9.5ZM54.4981 9.99358C55.0687 10.3152 55.5037 10.7742 55.8084 11.3836L56.7028 10.9364C56.3115 10.1538 55.7384 9.54478 54.9891 9.12242L54.4981 9.99358ZM55.8131 11.3929C56.1286 11.9923 56.2956 12.7134 56.2956 13.572H57.2956C57.2956 12.5826 57.1025 11.6957 56.698 10.9271L55.8131 11.3929ZM56.2956 13.572C56.2956 14.4172 56.1292 15.1401 55.8115 15.7543L56.6997 16.2137C57.102 15.4359 57.2956 14.5508 57.2956 13.572H56.2956ZM55.8099 15.7573C55.506 16.3547 55.0711 16.8095 54.4981 17.1324L54.9891 18.0036C55.7361 17.5825 56.3092 16.9813 56.7012 16.2107L55.8099 15.7573ZM54.4946 17.1344C53.9335 17.4565 53.266 17.626 52.4756 17.626V18.626C53.4131 18.626 54.2576 18.4235 54.9925 18.0016L54.4946 17.1344ZM52.4756 17.186C53.3994 17.186 54.1694 16.8759 54.7029 16.2053L53.9203 15.5827C53.6137 15.9681 53.1598 16.186 52.4756 16.186V17.186ZM54.6985 16.2106C55.2322 15.5584 55.4596 14.6524 55.4596 13.572H54.4596C54.4596 14.5316 54.255 15.1736 53.9246 15.5774L54.6985 16.2106ZM55.4596 13.572C55.4596 12.5018 55.2314 11.6027 54.6985 10.9514L53.9246 11.5846C54.2557 11.9893 54.4596 12.6262 54.4596 13.572H55.4596ZM54.702 10.9557C54.1606 10.2789 53.3946 9.958 52.4756 9.958V10.958C53.1406 10.958 53.5985 11.1771 53.9211 11.5803L54.702 10.9557ZM52.4756 9.958C51.5566 9.958 50.7905 10.2789 50.2491 10.9557L51.03 11.5803C51.3526 11.1771 51.8106 10.958 52.4756 10.958V9.958ZM50.2526 10.9514C49.7197 11.6027 49.4916 12.5018 49.4916 13.572H50.4916C50.4916 12.6262 50.6954 11.9893 51.0266 11.5846L50.2526 10.9514ZM49.4916 13.572C49.4916 14.6498 49.7119 15.5535 50.2303 16.2053L51.0129 15.5827C50.6913 15.1785 50.4916 14.5342 50.4916 13.572H49.4916ZM50.2346 16.2106C50.7789 16.8759 51.5514 17.186 52.4756 17.186V16.186C51.7917 16.186 51.3282 15.9681 51.0085 15.5774L50.2346 16.2106Z" fill="white"/>
</g>
</g>
<defs>
<filter id="filter0_bd" x="-15.7997" y="-7.5" width="97.0953" height="61.33" filterUnits="userSpaceOnUse" color-interpolation-filters="sRGB">
<feFlood flood-opacity="0" result="BackgroundImageFix"/>
<feGaussianBlur in="BackgroundImage" stdDeviation="2"/>
<feComposite in2="SourceAlpha" operator="in" result="effect1_backgroundBlur"/>
<feColorMatrix in="SourceAlpha" type="matrix" values="0 0 0 0 0 0 0 0 0 0 0 0 0 0 0 0 0 0 127 0"/>
<feOffset dy="8"/>
<feGaussianBlur stdDeviation="12"/>
<feColorMatrix type="matrix" values="0 0 0 0 0.0980392 0 0 0 0 0.12549 0 0 0 0 0.219608 0 0 0 0.03 0"/>
<feBlend mode="normal" in2="effect1_backgroundBlur" result="effect2_dropShadow"/>
<feBlend mode="normal" in="SourceGraphic" in2="effect2_dropShadow" result="shape"/>
</filter>
<radialGradient id="paint0_radial" cx="0" cy="0" r="1" gradientUnits="userSpaceOnUse" gradientTransform="translate(64 39.5943) rotate(-156.371) scale(69.857 51.3048)">
<stop stop-color="#0099FF"/>
<stop offset="1" stop-color="#00CCFF"/>
</radialGradient>
<linearGradient id="paint1_linear" x1="63.2329" y1="0.608693" x2="14.6323" y2="44.2829" gradientUnits="userSpaceOnUse">
<stop stop-color="white" stop-opacity="0.68"/>
<stop offset="1" stop-color="white" stop-opacity="0.32"/>
</linearGradient>
<linearGradient id="paint2_linear" x1="62.9041" y1="-1.43242e-06" x2="14.9954" y2="44.2392" gradientUnits="userSpaceOnUse">
<stop stop-color="#F2F2F2"/>
<stop offset="1" stop-color="white" stop-opacity="0.35"/>
</linearGradient>
<clipPath id="clip0">
<rect width="64" height="28" fill="white"/>
</clipPath>
</defs>
</svg>
